<svg width="512" height="514" viewBox="0 0 512 514" fill="none" xmlns="http://www.w3.org/2000/svg">

	
	

	
	<path id="c_1_path" stroke="#DEE8FB" fill="none" d="M 167,302 m -126.5,0 a 126.5,126.5 0 1,0 253,0 a 126.5,126.5 0 1,0 -253,0"/>
	<circle id="c_1" cx="122" cy="405" r="50" fill="url(#paint1_linear)"/>
		<animateMotion 
	           xlink:href="#c_1"
	           dur="5s"
	           begin="0s"
	           fill="freeze"
	           rotate="auto"
	           repeatCount="indefinite">
	    	<mpath xlink:href="#c_1_path" />
	    </animateMotion>

	<path id="c_3_path" stroke="#DEE8FB" fill="none" d="M 167,302 m -183.5,0 a 183.5,183.5 0 1,0 367,0 a 183.5,183.5 0 1,0 -367,0" stroke-opacity="0.9"/>
	<circle id="c_2" cx="210" cy="23" r="24" fill="url(#paint2_linear)"/>
		<animateMotion 
	           xlink:href="#c_2"
	           dur="5s"
	           begin="0s"
	           fill="freeze"
	           rotate="auto"
	           repeatCount="indefinite">
	    	<mpath xlink:href="#c_2_path" />
	    </animateMotion>

	
	<path id="c_2_path" stroke="#DEE8FB" fill="none" d="M 158,318 m -296.5,0 a 296.5,296.5 0 1,0 593,0 a 296.5,296.5 0 1,0 -593,0" stroke-opacity="0.7"/>	
	<circle id="c_3" cx="499" cy="104" r="13" fill="url(#paint3_linear)"/>
		<animateMotion 
	           xlink:href="#c_3"
	           dur="5s"
	           begin="0s"
	           fill="freeze"
	           rotate="auto"
	           repeatCount="indefinite">
	    	<mpath xlink:href="#c_3_path" />
	    </animateMotion>

	<defs>
		<linearGradient id="paint1_linear" x1="100" y1="0" x2="0" y2="100" gradientUnits="userSpaceOnUse">
			<stop stop-color="white"/>
			<stop offset="1" stop-color="#DEE8FB"/>
		</linearGradient>
		<linearGradient id="paint2_linear" x1="226.32" y1="15.32" x2="203.28" y2="30.68" gradientUnits="userSpaceOnUse">
			<stop stop-color="white"/>
			<stop offset="1" stop-color="#DEE8FB"/>
		</linearGradient>
		<linearGradient id="paint3_linear" x1="507.84" y1="99.84" x2="495.36" y2="108.16" gradientUnits="userSpaceOnUse">
			<stop stop-color="white"/>
			<stop offset="1" stop-color="#DEE8FB"/>
		</linearGradient>
	</defs>
</svg>
