<svg width="250" height="250" viewBox="0 0 250 250" fill="none" xmlns="http://www.w3.org/2000/svg">
<path d="M125 0C194.036 0 250 55.9644 250 125C250 194.036 194.036 250 125 250C55.9629 250 0 194.036 0 125C0 55.9644 55.9644 0 125 0Z" fill="url(#paint0_linear)" fill-opacity="0.5"/>
<path d="M125 25C180.229 25 225 69.7715 225 125C225 180.229 180.229 225 125 225C69.7703 225 25 180.229 25 125C25 69.7715 69.7715 25 125 25Z" fill="#1A91A1"/>
<path d="M125 25C180.229 25 225 69.7715 225 125C225 180.229 180.229 225 125 225C69.7703 225 25 180.229 25 125C25 69.7715 69.7715 25 125 25Z" fill="url(#paint1_linear)"/>
<path d="M108.94 185.684L104.239 204.144L88.438 217.396V220.235H125.001H161.565V217.396L145.764 204.144L141.062 185.684L125.002 185.448L108.94 185.684Z" fill="#CFCECE"/>
<path d="M88.438 217.396V220.235H125.001H161.563V217.396H88.438Z" fill="white"/>
<path d="M43.4219 58.1431H206.581C211.942 58.1431 216.328 62.5283 216.328 67.8896V168.397H33.6763V67.8896C33.6763 62.5283 38.0615 58.1431 43.4229 58.1431H43.4219Z" fill="#777777"/>
<path d="M40.293 161.777H209.709V67.8882C209.709 66.1797 208.288 64.7593 206.581 64.7593H43.4219C41.7134 64.7593 40.2944 66.1797 40.2944 67.8882V161.777H40.293Z" fill="#D7BDDC"/>
<path d="M216.326 168.396V179.055C216.326 184.416 211.493 188.801 205.582 188.801H44.418C38.5083 188.801 33.6748 184.416 33.6748 179.055V168.396H216.326Z" fill="white"/>
<path d="M125.562 83.0576C135.395 83.0576 144.298 87.0435 150.742 93.4868C157.185 99.9302 161.171 108.834 161.171 118.667C161.171 128.5 157.185 137.403 150.742 143.846C144.299 150.29 135.395 154.275 125.562 154.275C115.729 154.275 106.824 150.29 100.381 143.846C93.9385 137.403 89.9517 128.499 89.9517 118.667C89.9517 108.833 93.9375 99.9302 100.381 93.4868C106.825 87.0444 115.729 83.0576 125.562 83.0576ZM153.43 137.072C153.629 137.18 153.766 137.36 153.822 137.563C157.299 132.371 159.386 126.168 159.545 119.488H146.07C145.963 124.37 144.995 129.24 143.164 133.799C147.281 134.583 150.85 135.673 153.43 137.072ZM153.109 138.589C152.958 138.601 152.803 138.571 152.659 138.493C150.141 137.127 146.61 136.069 142.517 135.314C142.148 136.131 141.75 136.936 141.326 137.729C138.123 143.688 133.3 148.907 126.865 152.634C135.734 152.299 143.734 148.567 149.6 142.703C150.875 141.427 152.048 140.051 153.109 138.587V138.589ZM124.26 152.635C117.824 148.908 113 143.689 109.799 137.731C109.375 136.942 108.98 136.14 108.613 135.326C104.526 136.08 100.994 137.135 98.459 138.493C98.3169 138.569 98.1631 138.597 98.0146 138.585C99.0762 140.051 100.251 141.426 101.526 142.703C107.392 148.569 115.393 152.3 124.261 152.634L124.26 152.635ZM97.3047 137.565C97.3608 137.36 97.4981 137.179 97.7007 137.071C100.297 135.68 103.861 134.594 107.967 133.812C106.131 129.247 105.161 124.374 105.055 119.486H91.5796C91.7373 126.168 93.8247 132.372 97.3047 137.564V137.565ZM91.5796 117.87H105.051C105.144 112.584 106.251 107.318 108.368 102.445C104.115 101.66 100.417 100.557 97.7402 99.1313C93.9951 104.456 91.7388 110.904 91.5786 117.87H91.5796ZM98.71 97.8198C101.32 99.1636 104.922 100.202 109.063 100.937C109.318 100.412 109.586 99.8906 109.865 99.3784C113.067 93.4961 117.86 88.3574 124.246 84.6968C115.381 85.0347 107.388 88.7656 101.525 94.6289C100.522 95.6333 99.582 96.6978 98.71 97.8198ZM126.879 84.6968C133.265 88.356 138.059 93.4956 141.259 99.3784C141.541 99.896 141.81 100.42 142.067 100.947C146.22 100.213 149.82 99.1694 152.414 97.8184C151.542 96.6978 150.603 95.6323 149.599 94.6279C143.735 88.7646 135.742 85.0337 126.878 84.6958L126.879 84.6968ZM153.386 99.1338C150.726 100.566 147.028 101.675 142.762 102.458C144.877 107.328 145.98 112.591 146.074 117.87H159.545C159.385 110.905 157.129 104.458 153.386 99.1338ZM126.371 86.2671V102.261C131.24 102.229 136.074 101.882 140.405 101.221C140.224 100.86 140.037 100.502 139.844 100.148C136.831 94.6099 132.339 89.7598 126.371 86.2671ZM126.371 103.879V117.869H144.464C144.369 112.676 143.256 107.505 141.126 102.738C136.577 103.464 131.486 103.844 126.372 103.879H126.371ZM126.371 119.486V132.302C131.641 132.336 136.888 132.738 141.54 133.509C143.378 129.051 144.352 124.276 144.46 119.486H126.371ZM126.371 133.918V151.057C132.377 147.5 136.891 142.575 139.906 136.965C140.248 136.33 140.569 135.684 140.873 135.032C136.422 134.323 131.414 133.953 126.369 133.918H126.371ZM124.754 151.057V133.918C119.715 133.957 114.71 134.332 110.257 135.042C110.558 135.69 110.879 136.333 111.219 136.965C114.235 142.575 118.747 147.502 124.754 151.057ZM124.754 132.303V119.487H106.666C106.773 124.281 107.749 129.062 109.591 133.523C114.248 132.75 119.491 132.342 124.755 132.302H124.754V132.303ZM124.754 117.87V103.879C119.646 103.839 114.558 103.455 110.006 102.726C107.871 107.496 106.755 112.672 106.662 117.87H124.754V117.87ZM124.754 102.261V86.2685C118.786 89.7612 114.294 94.6113 111.28 100.149C111.089 100.5 110.905 100.855 110.725 101.211C115.06 101.875 119.892 102.225 124.754 102.262V102.261Z" fill="white"/>
<path d="M2.99805 38.1309H120.23V113.352H2.99805V38.1309Z" fill="#FBB429"/>
<path d="M224.677 150.371H231.932V82.7207H224.677V150.371Z" fill="#20D0C2"/>
<path d="M228.309 164.782L231.932 150.371H224.678L228.309 164.782Z" fill="#FBB429"/>
<path d="M226.167 76.1196H230.443C231.619 76.1196 232.581 77.2529 232.581 78.6377V110.088H224.026V78.6377C224.026 77.2534 224.988 76.1196 226.165 76.1196H226.167Z" fill="#FBB429"/>
<path d="M228.161 165.823H228.461L229.668 159.378H226.962L228.159 165.823H228.161Z" fill="#666666"/>
<path d="M224.03 81.5474L234.483 81.6279L235.142 81.6328V82.4023V105.828V106.067L235.02 106.272L234.03 107.939C233.522 108.713 232.463 108.119 232.951 107.052L233.821 105.588V83.1733L224.024 83.0977L224.029 81.5478V81.5474H224.03Z" fill="#FF5B61"/>
<path d="M118.356 38.1309H61.6162V110.448H118.356V38.1309Z" fill="#DFE1E3"/>
<path d="M114.98 38.1309C97.6392 38.1309 81.0747 30.5449 62.9531 38.1309V105.872H114.98V38.1309Z" fill="white"/>
<path d="M4.87354 38.1309H61.6152V110.448H4.87354V38.1309Z" fill="#DFE1E3"/>
<path d="M8.24805 38.1309C26.0352 38.1309 51.7441 30.6768 61.6147 38.1309V105.872H8.24805V38.1309Z" fill="white"/>
<path d="M12.8091 41.8809H41.3022V45.7964H12.8091V41.8809Z" fill="#20D0C2"/>
<path d="M12.8091 69.9155H54.001V71.2627H12.8091V69.9155ZM67.7012 69.9155H108.895V71.2627H67.7012V69.9155ZM67.7012 52.1504H108.895V53.4976H67.7012V52.1504ZM67.7012 65.7339H85.7383V67.0801H67.7012V65.7339ZM67.7012 63.0161H108.895V64.3633H67.7012V63.0161ZM67.7012 60.2998H108.895V61.647H67.7012V60.2998ZM67.7012 57.583H85.7383V58.9302H67.7012V57.583ZM67.7012 54.8667H108.895V56.2139H67.7012V54.8667ZM67.7012 83.4971H81.8779V84.8442H67.7012V83.4971ZM67.7012 80.7817H108.895V82.1279H67.7012V80.7817ZM67.7012 78.0649H108.895V79.4111H67.7012V78.0649ZM67.7012 75.3472H108.895V76.6943H67.7012V75.3472ZM67.7012 72.6309H108.895V73.9771H67.7012V72.6309ZM12.8091 52.1489H54.001V53.4961H12.8091V52.1489ZM12.8091 65.7324H30.8462V67.0786H12.8091V65.7324ZM12.8091 63.0146H54.001V64.3618H12.8091V63.0146ZM12.8091 60.2983H54.001V61.6455H12.8091V60.2983ZM12.8091 57.582H54.001V58.9292H12.8091V57.582ZM12.8091 54.8652H54.001V56.2124H12.8091V54.8652ZM12.8091 83.4956H26.9858V84.8428H12.8091V83.4956ZM12.8091 80.7803H54.001V82.1265H12.8091V80.7803ZM12.8091 78.064H54.001V79.4102H12.8091V78.064ZM12.8091 75.3462H54.001V76.6934H12.8091V75.3462ZM12.8091 72.6294H54.001V73.9756H12.8091V72.6294Z" fill="#C8CACC"/>
<path d="M176.483 22.5132L213.35 40.2939C215.299 41.7808 214.733 50.9614 214.497 52.6699C214.26 54.3799 213.097 53.7803 211.816 52.4482C210.536 51.1162 214.542 43.356 211.273 41.9385L170.539 24.2705C170.938 23.542 171.548 22.7964 172.26 22.5645C173.283 22.23 174.438 22.1455 176.482 22.5146V22.5132H176.483Z" fill="#C8CACC"/>
<path d="M225.37 39.2183L185.331 30.7217C182.879 30.7051 177.709 38.3101 176.849 39.8076C175.991 41.3037 177.277 41.542 179.106 41.2729C180.935 41.0039 182.514 32.4141 185.968 33.2925L228.997 44.2441C229.127 43.4243 229.1 42.4614 228.679 41.8428C228.076 40.9526 227.212 40.1763 225.371 39.2183H225.37Z" fill="#C8CACC"/>
<path d="M228.307 46.2588C227.9 46.9863 227.5 47.7178 227.102 48.436C226.356 49.7759 225.615 51.1182 224.876 52.4614C221.804 58.0483 210.892 55.7402 206.889 52.4268C206.714 52.2832 206.551 52.126 206.398 51.9595C205.408 50.8745 204.84 49.3418 204.501 47.9341C204.091 46.2305 203.942 44.4351 203.898 42.6855C203.87 41.5957 203.943 40.3813 203.884 39.2876C203.922 39.1172 203.964 38.9497 204.009 38.7866L211.274 41.9385C214.544 43.3564 210.536 51.1152 211.817 52.4473C213.098 53.7808 214.261 54.3784 214.498 52.6689C214.734 50.9604 215.299 41.7798 213.349 40.293L213.205 40.2236L228.996 44.2441C228.893 44.9126 228.667 45.6147 228.308 46.2588H228.307ZM206.06 35.1186L225.367 39.2158C220.217 36.5352 210.969 34.5078 207.2 34.2505C206.827 34.4692 206.439 34.7534 206.06 35.1186ZM169.849 26.2837C169.726 27.1074 169.594 27.9307 169.471 28.7427C169.239 30.2593 169.006 31.7744 168.766 33.2896C167.776 39.5884 177.82 44.4399 183.015 44.2695C183.241 44.2632 183.465 44.2373 183.689 44.1992C185.136 43.9482 186.524 43.0825 187.652 42.1758C189.018 41.0796 190.236 39.7515 191.342 38.395C192.031 37.5498 192.718 36.5444 193.431 35.7158C193.507 35.5571 193.575 35.3979 193.64 35.2432L185.968 33.29C182.514 32.4116 180.936 41 179.106 41.2705C177.277 41.5396 175.991 41.3013 176.849 39.8052C177.709 38.3091 182.879 30.7026 185.332 30.7192L185.489 30.7524L170.54 24.269C170.211 24.8608 169.961 25.5547 169.851 26.2852L169.849 26.2837ZM194.26 31.0869L176.481 22.5122C182.196 23.5444 190.751 27.6006 193.89 29.7036C194.05 30.1045 194.184 30.5654 194.26 31.0869Z" fill="#ECF0F1"/>
<path d="M169.933 18.293C174.407 18.3877 193.04 24.3486 194.942 26.4785C195.154 26.7153 199.36 29.501 199.354 29.5088L201.131 30.2607L202.996 30.7524C202.998 30.7436 208.028 31.1138 208.34 31.0561C211.14 30.5376 229.42 37.1831 233.096 39.8613C234.126 40.27 235.174 40.7373 235.149 40.936C235.272 41.4458 233.865 44.5732 233.723 44.6758C233.61 44.7153 233.101 44.7104 232.315 44.6743C232.143 44.8281 231.963 45.0405 231.785 45.3325C231.046 46.5439 228.105 51.8672 227.105 53.688C223.163 60.8589 210.523 58.7417 205.263 54.3872C200.514 50.458 201.48 40.9087 201.317 39.0859C201.285 38.7275 201.331 38.1855 201.427 37.5464C200.726 36.7344 199.828 35.8623 199.214 35.8696C198.733 35.4868 197.489 35.6289 196.437 35.8413C196.121 36.4048 195.825 36.8623 195.581 37.126C194.338 38.4682 189.258 46.6113 183.098 46.8135C176.273 47.0376 164.98 40.9785 166.251 32.8931C166.574 30.8398 167.506 24.832 167.663 23.4204C167.702 23.0644 167.702 22.7671 167.681 22.5264C167.134 22.1372 166.793 21.876 166.734 21.7837C166.684 21.6147 167.485 18.2807 167.893 17.9531C167.988 17.793 168.948 18.0132 169.931 18.29L169.933 18.293ZM169.85 26.2837C169.726 27.1084 169.595 27.9321 169.472 28.7441C169.24 30.2607 169.007 31.7759 168.768 33.291C167.777 39.5898 177.821 44.4429 183.016 44.271C183.242 44.2646 183.466 44.2388 183.689 44.2007C185.137 43.9497 186.525 43.084 187.653 42.1782C189.02 41.0805 190.237 39.7524 191.343 38.396C192.032 37.5508 192.719 36.5464 193.432 35.7153C194.673 33.0605 194.427 31.0405 193.892 29.7046C189.687 26.8857 175.754 20.56 171.965 22.7051C171.002 23.2505 170.095 24.6826 169.85 26.2847V26.2837ZM228.308 46.2588C229.094 44.8423 229.253 43.1543 228.825 42.1347C227.141 38.1196 212.251 34.5962 207.2 34.2515C205.958 34.9814 204.528 36.4272 203.884 39.2876C203.941 40.3799 203.87 41.5957 203.896 42.6855C203.941 44.435 204.09 46.2319 204.499 47.9341C204.839 49.3418 205.406 50.8745 206.396 51.9595C206.549 52.126 206.713 52.2837 206.887 52.4267C210.891 55.7402 221.803 58.0493 224.874 52.4614C225.613 51.1177 226.354 49.7759 227.1 48.436C227.499 47.7163 227.9 46.9863 228.307 46.2588H228.308Z" fill="#0E7886"/>
<defs>
<linearGradient id="paint0_linear" x1="0" y1="125" x2="250" y2="125" gradientUnits="userSpaceOnUse">
<stop stop-color="#2F82EE"/>
<stop offset="1" stop-color="#33ACFF"/>
</linearGradient>
<linearGradient id="paint1_linear" x1="25" y1="125" x2="225" y2="125" gradientUnits="userSpaceOnUse">
<stop stop-color="#2F82EE"/>
<stop offset="1" stop-color="#33ACFF"/>
</linearGradient>
</defs>
</svg>
