<svg width="110" height="110" viewBox="0 0 110 110" fill="none" xmlns="http://www.w3.org/2000/svg">
<g filter="url(#filter0_d)">
<path fill-rule="evenodd" clip-rule="evenodd" d="M68.9592 16.9137L73.3546 12.5213C72.8062 11.3779 72.5 10.1004 72.5 8.75C72.5 3.92 76.42 0 81.25 0C86.08 0 90 3.92 90 8.75C90 13.58 86.08 17.5 81.25 17.5C79.8996 17.5 78.6221 17.1938 77.4788 16.6454L73.1621 20.965C76.3967 24.9696 78.3333 30.065 78.3333 35.6067C78.3333 40.8421 76.6067 45.675 73.6929 49.5688L77.4788 53.3546C78.6221 52.8062 79.8996 52.5 81.25 52.5C86.08 52.5 90 56.42 90 61.25C90 66.08 86.08 70 81.25 70C76.42 70 72.5 66.08 72.5 61.25C72.5 59.8996 72.8062 58.6221 73.3546 57.4788L69.6446 53.7687C65.64 57.0033 60.5446 58.94 55 58.94C49.4554 58.94 44.36 57.0033 40.3554 53.7687L36.6454 57.4788C37.1938 58.6221 37.5 59.8996 37.5 61.25C37.5 66.08 33.58 70 28.75 70C23.92 70 20 66.08 20 61.25C20 56.42 23.92 52.5 28.75 52.5C30.1004 52.5 31.3779 52.8062 32.5213 53.3546L36.3071 49.5688C33.3933 45.675 31.6667 40.8421 31.6667 35.6067C31.6667 30.065 33.6033 24.9696 36.8379 20.965L32.5213 16.6454C31.3779 17.1938 30.1004 17.5 28.75 17.5C23.92 17.5 20 13.58 20 8.75C20 3.92 23.92 0 28.75 0C33.58 0 37.5 3.92 37.5 8.75C37.5 10.1004 37.1938 11.3779 36.6454 12.5213L41.0408 16.9137C44.9346 14 49.7675 12.2733 55 12.2733C60.2325 12.2733 65.0654 14 68.9592 16.9137ZM81.25 58.3333C82.86 58.3333 84.1667 59.64 84.1667 61.25C84.1667 62.86 82.86 64.1667 81.25 64.1667C79.64 64.1667 78.3333 62.86 78.3333 61.25C78.3333 59.64 79.64 58.3333 81.25 58.3333ZM28.75 58.3333C30.36 58.3333 31.6667 59.64 31.6667 61.25C31.6667 62.86 30.36 64.1667 28.75 64.1667C27.14 64.1667 25.8333 62.86 25.8333 61.25C25.8333 59.64 27.14 58.3333 28.75 58.3333ZM55 18.1067C64.6571 18.1067 72.5 25.9496 72.5 35.6067C72.5 45.2667 64.6571 53.1067 55 53.1067C45.3429 53.1067 37.5 45.2667 37.5 35.6067C37.5 25.9496 45.3429 18.1067 55 18.1067ZM55.3879 26.5183C55.1867 25.9058 55.6446 25.2787 56.2804 25.2787C56.6742 25.2787 57.0417 25.5267 57.1729 25.9233L62.7058 39.8125C62.8721 40.3083 62.6038 40.8392 62.1108 41.0054C61.6179 41.1688 61.0842 40.9004 60.9208 40.4075C60.9208 40.4075 57.4267 39.2379 53.285 40.6117L56.0092 44.8467C56.2921 45.2608 56.0938 45.8296 55.6242 45.9871L53.7721 46.6025L53.3812 46.6667C53.0342 46.6667 52.6958 46.5179 52.4567 46.2496L48.7146 42.1196C46.6758 42.7642 44.3717 42.0204 43.6017 40.1012C43.4237 39.6608 43.3333 39.1912 43.3333 38.7217C43.3333 37.3538 44.0975 35.9567 45.7571 35.1429C54.0608 31.0654 55.3879 26.5183 55.3879 26.5183ZM61.2854 27.405C62.7612 28.0292 63.9979 29.2192 64.6483 30.8233C65.2988 32.4304 65.2404 34.1483 64.6163 35.6271L66.0483 36.2367C66.4538 35.2771 66.6667 34.2388 66.6667 33.1829C66.6667 30.1029 64.8467 27.2183 61.8921 25.97L61.2854 27.405ZM60.2529 29.8579C61.1017 30.2167 61.8162 30.9021 62.1896 31.8267C62.5629 32.7513 62.5308 33.74 62.1721 34.5917L63.5692 35.1838C64.0767 33.9733 64.1292 32.5675 63.5954 31.255C63.0646 29.9396 62.0525 28.9683 60.8421 28.4579L60.2529 29.8579ZM28.75 5.83333C30.36 5.83333 31.6667 7.14 31.6667 8.75C31.6667 10.36 30.36 11.6667 28.75 11.6667C27.14 11.6667 25.8333 10.36 25.8333 8.75C25.8333 7.14 27.14 5.83333 28.75 5.83333ZM81.25 5.83333C82.86 5.83333 84.1667 7.14 84.1667 8.75C84.1667 10.36 82.86 11.6667 81.25 11.6667C79.64 11.6667 78.3333 10.36 78.3333 8.75C78.3333 7.14 79.64 5.83333 81.25 5.83333Z" fill="url(#paint0_linear)"/>
</g>
<defs>
<filter id="filter0_d" x="0" y="0" width="110" height="110" filterUnits="userSpaceOnUse" color-interpolation-filters="sRGB">
<feFlood flood-opacity="0" result="BackgroundImageFix"/>
<feColorMatrix in="SourceAlpha" type="matrix" values="0 0 0 0 0 0 0 0 0 0 0 0 0 0 0 0 0 0 127 0"/>
<feOffset dy="20"/>
<feGaussianBlur stdDeviation="10"/>
<feColorMatrix type="matrix" values="0 0 0 0 0 0 0 0 0 0.113725 0 0 0 0 0.243137 0 0 0 0.15 0"/>
<feBlend mode="normal" in2="BackgroundImageFix" result="effect1_dropShadow"/>
<feBlend mode="normal" in="SourceGraphic" in2="effect1_dropShadow" result="shape"/>
</filter>
<linearGradient id="paint0_linear" x1="55" y1="0" x2="55" y2="70" gradientUnits="userSpaceOnUse">
<stop stop-color="#2F82EE"/>
<stop offset="1" stop-color="#33ACFF"/>
</linearGradient>
</defs>
</svg>
