<svg width="117" height="110" viewBox="0 0 117 110" fill="none" xmlns="http://www.w3.org/2000/svg">
<g filter="url(#filter0_d)">
<path fill-rule="evenodd" clip-rule="evenodd" d="M96.3636 70H32.7273C25.7018 70 20 64.2982 20 57.2727V7.33727C20.9959 3.92955 24.0886 0 29.5455 0C35.4477 0 38.3559 4.27 39.075 7.35636L39.0909 12.7273H96.3636V70ZM93.1818 15.9091H39.0909V57.2727C39.0909 57.2727 36.975 54.0909 32.7273 54.0909C29.2145 54.0909 26.3636 56.9418 26.3636 60.4545C26.3636 63.9673 29.2145 66.8182 32.7273 66.8182H93.1818V15.9091ZM35.9091 7.38182C34.5505 4.29227 31.6868 3.16591 29.5455 3.18182C27.4423 3.19773 24.5564 4.13636 23.1818 7.38182V58.8573C24.4355 52.5159 30.325 49.6905 35.9091 51.2177V7.38182ZM83.6364 57.2727H45.4545V25.4545H83.6364V57.2727ZM58.1818 28.6364H48.6364V54.0909H80.4545V41.3636H74.0909V50.9091H70.9091V41.3636H61.3636V50.9091H58.1818V28.6364ZM80.4545 28.6364H61.3636V38.1818H80.4545V28.6364Z" fill="url(#paint0_linear)"/>
</g>
<defs>
<filter id="filter0_d" x="0" y="0" width="116.364" height="110" filterUnits="userSpaceOnUse" color-interpolation-filters="sRGB">
<feFlood flood-opacity="0" result="BackgroundImageFix"/>
<feColorMatrix in="SourceAlpha" type="matrix" values="0 0 0 0 0 0 0 0 0 0 0 0 0 0 0 0 0 0 127 0"/>
<feOffset dy="20"/>
<feGaussianBlur stdDeviation="10"/>
<feColorMatrix type="matrix" values="0 0 0 0 0.00106786 0 0 0 0 0.113066 0 0 0 0 0.244541 0 0 0 0.15 0"/>
<feBlend mode="normal" in2="BackgroundImageFix" result="effect1_dropShadow"/>
<feBlend mode="normal" in="SourceGraphic" in2="effect1_dropShadow" result="shape"/>
</filter>
<linearGradient id="paint0_linear" x1="58.1818" y1="0" x2="58.1818" y2="70" gradientUnits="userSpaceOnUse">
<stop stop-color="#2F82EE"/>
<stop offset="1" stop-color="#33ACFF"/>
</linearGradient>
</defs>
</svg>
