<svg width="99" height="110" viewBox="0 0 99 110" fill="none" xmlns="http://www.w3.org/2000/svg">
<g filter="url(#filter0_d)">
<path d="M52.0833 35V39.8096L61.5012 43.75L52.0833 47.6788V52.5L66.6667 46.0804V41.4167L52.0833 35ZM31.6667 41.4196V46.0833L46.25 52.5V47.6788L36.8321 43.75L46.25 39.8096V35L31.6667 41.4196ZM47.3058 5.83333C59.4275 5.83333 55 23.3333 55 23.3333C55 23.3333 72.5 18.5208 72.5 30.4996V64.1667H25.8333V5.83333H47.3058ZM49.7179 0H20V70H78.3333V28.0408C78.3333 21.0671 58.9433 0 49.7179 0Z" fill="url(#paint0_linear)"/>
</g>
<defs>
<filter id="filter0_d" x="0" y="0" width="98.3333" height="110" filterUnits="userSpaceOnUse" color-interpolation-filters="sRGB">
<feFlood flood-opacity="0" result="BackgroundImageFix"/>
<feColorMatrix in="SourceAlpha" type="matrix" values="0 0 0 0 0 0 0 0 0 0 0 0 0 0 0 0 0 0 127 0"/>
<feOffset dy="20"/>
<feGaussianBlur stdDeviation="10"/>
<feColorMatrix type="matrix" values="0 0 0 0 0 0 0 0 0 0.113725 0 0 0 0 0.243137 0 0 0 0.15 0"/>
<feBlend mode="normal" in2="BackgroundImageFix" result="effect1_dropShadow"/>
<feBlend mode="normal" in="SourceGraphic" in2="effect1_dropShadow" result="shape"/>
</filter>
<linearGradient id="paint0_linear" x1="49.1667" y1="0" x2="49.1667" y2="70" gradientUnits="userSpaceOnUse">
<stop stop-color="#2F82EE"/>
<stop offset="1" stop-color="#33ACFF"/>
</linearGradient>
</defs>
</svg>
