<svg width="479" height="479" viewBox="0 0 479 479" fill="none" xmlns="http://www.w3.org/2000/svg">
<g clip-path="url(#clip0)">
<path d="M479 5H0V484H479V5Z" fill="url(#paint0_radial)"/>
<path d="M328.955 126.338L120.732 6.11859V140.927L328.955 261.147V126.338Z" fill="url(#paint1_linear)"/>
<path d="M226.847 417.285L74.0168 329.049V323.282L276.576 382.812V388.576L226.847 417.285Z" fill="#393D91"/>
<path d="M226.847 417.285L74.0168 329.049V323.282L226.856 410.947V416.712L226.847 417.285Z" fill="#464596"/>
<path d="M226.847 411.521L74.0168 323.282L123.743 294.575L276.576 382.812L226.847 411.521Z" fill="#565AA4"/>
<path d="M128.182 310.726L118.105 304.909V303.676L134.68 305.743V306.975L128.182 310.726Z" fill="#29398E"/>
<path d="M128.182 309.492L118.105 303.676L124.606 299.927L134.68 305.743L128.182 309.492Z" fill="#AEB5DD"/>
<path d="M138.967 316.963L128.89 311.145V309.91L145.465 311.979V313.212L138.967 316.963Z" fill="#29398E"/>
<path d="M138.967 315.73L128.89 309.91L135.388 306.162L145.465 311.979L138.967 315.73Z" fill="#AEB5DD"/>
<path d="M149.753 323.196L139.674 317.379V316.146L156.252 318.212V319.446L149.753 323.196Z" fill="#29398E"/>
<path d="M149.753 321.964L139.674 316.146L146.174 312.395L156.252 318.212L149.753 321.964Z" fill="#AEB5DD"/>
<path d="M160.536 329.435L150.458 323.614V322.383L167.035 324.448V325.68L160.536 329.435Z" fill="#29398E"/>
<path d="M160.536 328.201L150.458 322.383L156.957 318.631L167.035 324.448L160.536 328.201Z" fill="#AEB5DD"/>
<path d="M171.321 335.667L161.243 329.851V328.617L177.819 330.685V331.917L171.321 335.667Z" fill="#29398E"/>
<path d="M171.321 334.434L161.243 328.617L167.741 324.867L177.819 330.685L171.321 334.434Z" fill="#AEB5DD"/>
<path d="M182.106 341.903L172.028 336.085V334.851L188.602 336.918V338.153L182.106 341.903Z" fill="#29398E"/>
<path d="M182.106 340.669L172.028 334.851L178.527 331.101L188.602 336.919L182.106 340.669Z" fill="#AEB5DD"/>
<path d="M192.887 348.138L182.813 342.322V341.088L199.39 343.153V344.387L192.887 348.138Z" fill="#29398E"/>
<path d="M192.887 346.909L182.813 341.088L189.312 337.336L199.39 343.153L192.887 346.909Z" fill="#AEB5DD"/>
<path d="M203.673 354.372L193.595 348.556V347.323L210.174 349.39V350.622L203.673 354.372Z" fill="#29398E"/>
<path d="M203.673 353.139L193.595 347.323L200.097 343.573L210.174 349.39L203.673 353.139Z" fill="#AEB5DD"/>
<path d="M214.458 360.609L204.383 354.794V353.56L220.959 355.623V356.857L214.458 360.609Z" fill="#29398E"/>
<path d="M214.458 359.377L204.383 353.56L210.88 349.807L220.959 355.623L214.458 359.377Z" fill="#AEB5DD"/>
<path d="M225.242 366.847L215.166 361.027V359.793L231.744 361.859V363.092L225.242 366.847Z" fill="#29398E"/>
<path d="M225.242 365.613L215.166 359.793L221.664 356.039L231.744 361.859L225.242 365.613Z" fill="#AEB5DD"/>
<path d="M236.027 373.078L225.949 367.261V366.029L242.527 368.094V369.328L236.027 373.078Z" fill="#29398E"/>
<path d="M236.027 371.846L225.949 366.029L232.45 362.277L242.527 368.094L236.027 371.846Z" fill="#AEB5DD"/>
<path d="M246.812 379.315L236.736 373.499V372.265L253.312 374.332V375.564L246.812 379.315Z" fill="#29398E"/>
<path d="M246.812 378.082L236.736 372.265L243.236 368.514L253.312 374.332L246.812 378.082Z" fill="#AEB5DD"/>
<path d="M257.596 385.552L247.52 379.732V378.501L264.095 380.565V381.798L257.596 385.552Z" fill="#29398E"/>
<path d="M257.596 384.319L247.52 378.501L254.019 374.748L264.095 380.566L257.596 384.319Z" fill="#AEB5DD"/>
<path d="M125.647 319.085L109.702 309.752V308.519L132.145 314.1V315.332L125.647 319.085Z" fill="#29398E"/>
<path d="M125.647 317.851L109.702 308.519L116.202 304.768L132.145 314.1L125.647 317.851Z" fill="#AEB5DD"/>
<path d="M136.431 325.318L126.353 319.501V318.266L142.927 320.334V321.567L136.431 325.318Z" fill="#29398E"/>
<path d="M136.431 324.085L126.353 318.266L132.853 314.518L142.927 320.334L136.431 324.085Z" fill="#AEB5DD"/>
<path d="M147.213 331.554L137.135 325.738V324.505L153.712 326.571V327.801L147.213 331.554Z" fill="#29398E"/>
<path d="M147.213 330.322L137.135 324.505L143.637 320.751L153.712 326.571L147.213 330.322Z" fill="#AEB5DD"/>
<path d="M157.996 337.791L147.923 331.971V330.737L164.499 332.804V334.038L157.996 337.791Z" fill="#29398E"/>
<path d="M157.996 336.554L147.923 330.737L154.422 326.987L164.499 332.804L157.996 336.554Z" fill="#AEB5DD"/>
<path d="M168.782 344.023L158.708 338.207V336.974L175.284 339.041V340.274L168.782 344.023Z" fill="#29398E"/>
<path d="M168.782 342.79L158.708 336.974L165.205 333.221L175.284 339.041L168.782 342.79Z" fill="#AEB5DD"/>
<path d="M179.57 350.259L169.49 344.441V343.207L186.069 345.276V346.509L179.57 350.259Z" fill="#29398E"/>
<path d="M179.57 349.026L169.49 343.207L175.988 339.456L186.069 345.276L179.57 349.026Z" fill="#AEB5DD"/>
<path d="M190.355 356.494L180.276 350.676V349.443L196.853 351.51V352.744L190.355 356.494Z" fill="#29398E"/>
<path d="M190.355 355.265L180.276 349.443L186.776 345.692L196.853 351.51L190.355 355.265Z" fill="#AEB5DD"/>
<path d="M201.137 362.73L191.058 356.913V355.678L207.638 357.747V358.979L201.137 362.73Z" fill="#29398E"/>
<path d="M201.137 361.495L191.058 355.678L197.56 351.928L207.638 357.747L201.137 361.495Z" fill="#AEB5DD"/>
<path d="M211.923 368.966L201.846 363.146V361.913L218.42 363.978V365.214L211.923 368.966Z" fill="#29398E"/>
<path d="M211.923 367.732L201.846 361.913L208.345 358.162L218.42 363.978L211.923 367.732Z" fill="#AEB5DD"/>
<path d="M222.707 375.202L212.631 369.382V368.153L229.205 370.217V371.449L222.707 375.202Z" fill="#29398E"/>
<path d="M222.707 373.969L212.631 368.153L219.129 364.399L229.205 370.217L222.707 373.969Z" fill="#AEB5DD"/>
<path d="M233.491 381.435L223.414 375.615V374.384L239.99 376.451V377.685L233.491 381.435Z" fill="#29398E"/>
<path d="M233.491 380.202L223.414 374.384L229.911 370.633L239.99 376.451L233.491 380.202Z" fill="#AEB5DD"/>
<path d="M249.151 390.536L234.197 381.855V380.621L255.651 385.552V386.782L249.151 390.536Z" fill="#29398E"/>
<path d="M249.151 389.302L234.197 380.621L240.696 376.868L255.651 385.552L249.151 389.302Z" fill="#AEB5DD"/>
<path d="M113.165 321.671L101.177 314.684V313.455L118.805 316.184V317.417L113.165 321.671Z" fill="#29398E"/>
<path d="M113.534 320.644L101.177 313.455L107.674 309.7L120.034 316.893L113.534 320.644Z" fill="#AEB5DD"/>
<path d="M123.087 327.4L113.011 321.584V320.351L129.59 322.417V323.651L123.087 327.4Z" fill="#29398E"/>
<path d="M123.087 326.169L113.011 320.351L119.509 316.598L129.59 322.417L123.087 326.169Z" fill="#AEB5DD"/>
<path d="M133.876 333.639L123.795 327.82V326.586L140.375 328.653V329.885L133.876 333.639Z" fill="#29398E"/>
<path d="M133.876 332.403L123.795 326.586L130.296 322.835L140.375 328.653L133.876 332.403Z" fill="#AEB5DD"/>
<path d="M144.661 339.871L134.581 334.055V332.824L151.157 334.888V336.121L144.661 339.871Z" fill="#29398E"/>
<path d="M144.661 338.642L134.581 332.824L141.081 329.069L151.157 334.888L144.661 338.642Z" fill="#AEB5DD"/>
<path d="M155.441 346.11L145.366 340.289V339.058L161.94 341.122V342.356L155.441 346.11Z" fill="#29398E"/>
<path d="M155.441 344.875L145.366 339.058L151.867 335.306L161.94 341.122L155.441 344.875Z" fill="#AEB5DD"/>
<path d="M166.226 352.344L156.149 346.524V345.295L172.727 347.361V348.592L166.226 352.344Z" fill="#29398E"/>
<path d="M166.226 351.112L156.149 345.295L162.65 341.541L172.727 347.361L166.226 351.112Z" fill="#AEB5DD"/>
<path d="M177.013 358.579L166.935 352.762V351.527L183.512 353.594V354.824L177.013 358.579Z" fill="#29398E"/>
<path d="M177.013 357.344L166.935 351.527L173.433 347.774L183.512 353.594L177.013 357.344Z" fill="#AEB5DD"/>
<path d="M187.798 364.815L177.718 358.998V357.764L194.294 359.83V361.063L187.798 364.815Z" fill="#29398E"/>
<path d="M187.798 363.584L177.718 357.764L184.22 354.011L194.294 359.83L187.798 363.584Z" fill="#AEB5DD"/>
<path d="M198.583 371.051L188.502 365.232V363.998L205.08 366.062V367.3L198.583 371.051Z" fill="#29398E"/>
<path d="M198.583 369.816L188.502 363.998L195.003 360.246L205.08 366.062L198.583 369.816Z" fill="#AEB5DD"/>
<path d="M209.367 377.287L199.292 371.466V370.233L215.867 372.3V373.532L209.367 377.287Z" fill="#29398E"/>
<path d="M209.367 376.053L199.292 370.233L205.787 366.484L215.867 372.3L209.367 376.053Z" fill="#AEB5DD"/>
<path d="M220.15 383.52L210.073 377.704V376.47L226.649 378.537V379.77L220.15 383.52Z" fill="#29398E"/>
<path d="M220.15 382.287L210.073 376.47L216.571 372.72L226.649 378.537L220.15 382.287Z" fill="#AEB5DD"/>
<path d="M230.935 389.756L220.859 383.934V382.703L237.435 384.769V386.001L230.935 389.756Z" fill="#29398E"/>
<path d="M230.935 388.524L220.859 382.703L227.359 378.953L237.435 384.769L230.935 388.524Z" fill="#AEB5DD"/>
<path d="M240.622 395.351L231.642 390.171V388.942L247.12 390.367V391.601L240.622 395.351Z" fill="#29398E"/>
<path d="M240.622 394.12L231.642 388.942L238.141 385.188L247.12 390.367L240.622 394.12Z" fill="#AEB5DD"/>
<path d="M109.768 329.523L92.5869 319.618V318.38L116.266 324.54V325.768L109.768 329.523Z" fill="#29398E"/>
<path d="M109.768 328.293L92.5869 318.38L99.0849 314.631L116.266 324.54L109.768 328.293Z" fill="#AEB5DD"/>
<path d="M120.552 335.758L110.475 329.941V328.709L127.05 330.775V332.007L120.552 335.758Z" fill="#29398E"/>
<path d="M120.552 334.525L110.475 328.709L116.976 324.957L127.05 330.775L120.552 334.525Z" fill="#AEB5DD"/>
<path d="M131.338 341.993L121.26 336.174V334.941L137.836 337.007V338.242L131.338 341.993Z" fill="#29398E"/>
<path d="M131.338 340.761L121.26 334.941L127.758 331.191L137.836 337.007L131.338 340.761Z" fill="#AEB5DD"/>
<path d="M142.122 348.232L132.043 342.414V341.178L148.62 343.245V344.478L142.122 348.232Z" fill="#29398E"/>
<path d="M142.122 346.995L132.043 341.178L138.542 337.425L148.62 343.245L142.122 346.995Z" fill="#AEB5DD"/>
<path d="M152.906 354.464L142.829 348.644V347.411L159.405 349.48V350.712L152.906 354.464Z" fill="#29398E"/>
<path d="M152.906 353.231L142.829 347.411L149.327 343.661L159.405 349.48L152.906 353.231Z" fill="#AEB5DD"/>
<path d="M163.691 360.7L153.613 354.884V353.646L170.19 355.713V356.947L163.691 360.7Z" fill="#29398E"/>
<path d="M163.691 359.467L153.613 353.646L160.112 349.897L170.19 355.713L163.691 359.467Z" fill="#AEB5DD"/>
<path d="M174.477 366.934L164.398 361.116V359.887L180.973 361.953V363.184L174.477 366.934Z" fill="#29398E"/>
<path d="M174.477 365.701L164.398 359.887L170.897 356.131L180.973 361.953L174.477 365.701Z" fill="#AEB5DD"/>
<path d="M185.258 373.17L175.184 367.351V366.12L191.759 368.185V369.419L185.258 373.17Z" fill="#29398E"/>
<path d="M185.258 371.937L175.184 366.12L181.682 362.366L191.759 368.185L185.258 371.937Z" fill="#AEB5DD"/>
<path d="M196.045 379.403L185.967 373.586V372.354L202.543 374.422V375.653L196.045 379.403Z" fill="#29398E"/>
<path d="M196.045 378.174L185.967 372.354L192.466 368.603L202.543 374.422L196.045 378.174Z" fill="#AEB5DD"/>
<path d="M206.83 385.643L196.752 379.822V378.589L213.328 380.655V381.888L206.83 385.643Z" fill="#29398E"/>
<path d="M206.83 384.405L196.752 378.589L203.251 374.836L213.328 380.655L206.83 384.405Z" fill="#AEB5DD"/>
<path d="M217.613 391.876L207.534 386.06V384.827L224.113 386.891V388.124L217.613 391.876Z" fill="#29398E"/>
<path d="M217.613 390.643L207.534 384.827L214.035 381.073L224.113 386.891L217.613 390.643Z" fill="#AEB5DD"/>
<path d="M232.196 400.193L218.322 392.295V391.059L238.693 395.21V396.444L232.196 400.193Z" fill="#29398E"/>
<path d="M232.196 398.964L218.322 391.059L224.82 387.308L238.693 395.21L232.196 398.964Z" fill="#AEB5DD"/>
<path d="M96.424 331.603L84.212 324.447V323.214L102.927 326.62V327.854L96.424 331.603Z" fill="#29398E"/>
<path d="M96.424 330.374L84.212 323.214L90.71 319.464L102.927 326.62L96.424 330.374Z" fill="#AEB5DD"/>
<path d="M107.213 337.844L97.1349 332.023V330.794L113.712 332.857V334.087L107.213 337.844Z" fill="#29398E"/>
<path d="M107.213 336.611L97.1349 330.794L103.634 327.037L113.712 332.857L107.213 336.611Z" fill="#AEB5DD"/>
<path d="M117.998 344.073L107.921 338.258V337.028L124.496 339.092V340.324L117.998 344.073Z" fill="#29398E"/>
<path d="M117.998 342.844L107.921 337.028L114.419 333.274L124.496 339.092L117.998 342.844Z" fill="#AEB5DD"/>
<path d="M182.497 381.458L118.705 344.496V343.261L188.995 376.475V377.707L182.497 381.458Z" fill="#29398E"/>
<path d="M182.497 380.226L118.705 343.261L125.203 339.509L188.995 376.475L182.497 380.226Z" fill="#AEB5DD"/>
<path d="M193.488 387.724L183.412 381.908V380.674L199.986 382.741V383.974L193.488 387.724Z" fill="#29398E"/>
<path d="M193.488 386.491L183.412 380.674L189.911 376.923L199.986 382.741L193.488 386.491Z" fill="#AEB5DD"/>
<path d="M204.272 393.962L194.195 388.141V386.908L210.773 388.976V390.209L204.272 393.962Z" fill="#29398E"/>
<path d="M204.272 392.727L194.195 386.908L200.695 383.157L210.773 388.976L204.272 392.727Z" fill="#AEB5DD"/>
<path d="M215.057 400.193L204.982 394.377V393.144L221.556 395.21V396.444L215.057 400.193Z" fill="#29398E"/>
<path d="M215.057 398.964L204.982 393.144L211.477 389.393L221.556 395.21L215.057 398.964Z" fill="#AEB5DD"/>
<path d="M223.742 405.18L215.763 400.612V399.379L230.236 400.193V401.427L223.742 405.18Z" fill="#29398E"/>
<path d="M223.742 403.946L215.763 399.379L222.264 395.626L230.236 400.193L223.742 403.946Z" fill="#AEB5DD"/>
<path d="M153.061 295.77H153.057V287.666L158.877 290.595L169.098 284.69C172.426 282.769 177.828 282.769 181.155 284.69L283.888 344.005L289.74 341.151V349.161L289.738 349.157C289.869 350.508 289.051 351.883 287.265 352.915L273.701 360.749C270.374 362.667 264.975 362.667 261.646 360.749L155.539 299.482C153.769 298.462 152.95 297.106 153.061 295.77Z" fill="#464596"/>
<path d="M283.888 344.005L289.74 341.151V349.161L289.738 349.157C289.869 350.508 289.051 351.883 287.265 352.915L273.701 360.749C272.081 361.68 269.967 362.153 267.842 362.178V334.74L283.888 344.005Z" fill="#393D91"/>
<path d="M273.701 352.19C270.374 354.113 264.975 354.113 261.646 352.192L155.539 290.929C152.209 289.003 152.209 285.89 155.539 283.97L169.098 276.138C172.426 274.216 177.828 274.216 181.155 276.138L287.265 337.4C290.593 339.322 290.593 342.438 287.265 344.361L273.701 352.19Z" fill="#565AA4"/>
<path d="M241.561 331.046L248.958 326.861V289.016L201.239 261.47L241.561 331.046Z" fill="#2B3081"/>
<path d="M193.844 303.498L241.561 331.046V293.203L193.844 265.655V303.498Z" fill="#32378D"/>
<path d="M115.249 65.7919L122.19 61.8313C122.334 61.7179 122.492 61.6259 122.663 61.5616L122.667 61.559C123.337 61.3032 124.2 61.4128 125.143 61.9561L324.838 177.249C326.978 178.485 328.712 181.492 328.712 183.964V337.314C328.712 338.551 328.279 339.422 327.579 339.824C327.475 339.883 327.365 339.93 327.254 339.969L320.349 343.938L318.912 336.466L320.974 337.323L125.144 224.263C123.001 223.024 121.265 220.019 121.265 217.544V69.9718L115.249 65.7919Z" fill="#393D91"/>
<path d="M122.19 61.8313C122.334 61.7179 122.492 61.6259 122.663 61.5616L122.667 61.559C123.337 61.3032 124.2 61.4128 125.143 61.9561L324.838 177.249C325.765 177.786 326.609 178.667 327.278 179.684L193.787 263.894L125.144 224.263C123.001 223.024 121.265 220.019 121.265 217.544V69.9718L115.249 65.7919L122.19 61.8313Z" fill="#565AA4"/>
<path d="M114.088 221.642C114.087 224.114 115.824 227.12 117.964 228.359L317.659 343.651C319.801 344.885 321.534 343.887 321.534 341.415V188.062C321.534 185.589 319.801 182.582 317.659 181.346L117.964 66.0541C115.824 64.8175 114.088 65.8196 114.088 68.2915V221.642Z" fill="#464596"/>
<path d="M117.855 210.41L317.771 325.831V187.791L117.855 72.3693V210.41Z" fill="#D7BDDC"/>
<path d="M230.161 291.053L202.134 274.815L172.392 296.661L200.414 312.899L230.161 291.053Z" fill="#DDDDDD"/>
<path d="M200.423 320.987L172.392 304.744V296.661L200.414 312.899L200.423 320.987Z" fill="#EFEFEF"/>
<path d="M200.423 320.979L172.392 304.744L165.393 308.785L193.414 325.025L200.423 320.979Z" fill="#DDDDDD"/>
<path d="M193.419 333.112L165.393 316.871V308.785L193.414 325.025L193.419 333.112Z" fill="#EFEFEF"/>
<path d="M193.419 333.123L165.393 316.885L158.393 320.929L186.414 337.168L193.419 333.123Z" fill="#DDDDDD"/>
<path d="M186.419 345.254L158.393 329.014V320.929L186.414 337.168L186.419 345.254Z" fill="#EFEFEF"/>
<path d="M186.419 345.267L158.393 329.028L151.391 333.071L179.412 349.312L186.419 345.267Z" fill="#DDDDDD"/>
<path d="M179.417 357.397L151.391 341.159V333.071L179.412 349.312L179.417 357.397Z" fill="#EFEFEF"/>
<path d="M179.417 357.41L151.391 341.171L144.39 345.215L172.411 361.458L179.417 357.41Z" fill="#DDDDDD"/>
<path d="M172.416 369.54L144.39 353.303V345.215L172.411 361.458L172.416 369.54Z" fill="#EFEFEF"/>
<path d="M172.416 369.554L144.39 353.317L137.389 357.359L165.411 373.599L172.416 369.554Z" fill="#DDDDDD"/>
<path d="M165.416 381.685L137.389 365.443V357.359L165.411 373.599L165.416 381.685Z" fill="#EFEFEF"/>
<path d="M165.416 381.692L137.389 365.453L130.388 369.499L158.412 385.736L165.416 381.692Z" fill="#DDDDDD"/>
<path d="M158.414 393.822L130.388 377.582V369.499L158.412 385.736L158.414 393.822Z" fill="#EFEFEF"/>
<path d="M172.416 369.487V361.402L179.42 357.36V349.212L186.411 345.237V337.152L193.414 333.112V325.029L200.414 320.987V312.899L230.161 291.053L165.416 389.697L158.397 393.739V385.655L165.416 381.685V373.533L172.416 369.487Z" fill="#CAC9C9"/>
<path d="M119.812 73.4988V208.888L317.771 323.179V325.831L117.855 210.41V72.3693L119.812 73.4988Z" fill="#2E2D2E"/>
<path d="M339.009 346.863L340.831 345.625L340.83 216.833L265.38 173.272L262.998 174.186L339.009 346.863Z" fill="#E9E8E8"/>
<path d="M262.999 302.976L339.009 346.863L339.007 218.071L262.998 174.186L262.999 302.976Z" fill="#FDFDFD"/>
<path d="M289.903 250.334L334.803 276.258V272.763L289.903 246.838V250.334Z" fill="#C2C1C1"/>
<path d="M267.706 242.757L334.803 281.494V280.331L267.706 241.591V242.757Z" fill="#C2C1C1"/>
<path d="M267.706 247.617L334.803 286.356V285.192L267.706 246.453V247.617Z" fill="#C2C1C1"/>
<path d="M267.706 252.476L334.803 291.216V290.052L267.706 251.312V252.476Z" fill="#C2C1C1"/>
<path d="M267.706 257.338L334.803 296.079V294.913L267.706 256.174V257.338Z" fill="#C2C1C1"/>
<path d="M267.706 262.198L334.803 300.939V299.772L267.706 261.032V262.198Z" fill="#C2C1C1"/>
<path d="M289.903 284.796L334.803 310.717V307.222L289.903 281.299V284.796Z" fill="#C2C1C1"/>
<path d="M267.706 277.214L334.803 315.956V314.79L267.706 276.049V277.214Z" fill="#C2C1C1"/>
<path d="M267.706 282.076L334.803 320.814V319.649L267.706 280.91V282.076Z" fill="#C2C1C1"/>
<path d="M267.707 286.936L334.803 325.673V324.509L267.707 285.77V286.936Z" fill="#C2C1C1"/>
<path d="M267.706 291.797L334.803 330.536V329.37L267.706 290.632V291.797Z" fill="#C2C1C1"/>
<path d="M267.706 296.655L334.803 335.396V334.232L267.706 295.493V296.655Z" fill="#C2C1C1"/>
<path d="M298.524 254.512L334.854 275.484V225.32L298.524 204.344V254.512Z" fill="#58B892"/>
<path d="M314.769 237.769C314.769 241.048 322.914 255.206 325.667 256.794C328.421 258.384 324.737 246.802 324.737 243.524C324.737 240.246 325.312 236.572 324.243 231.251C323.619 228.138 314.769 234.492 314.769 237.769Z" fill="#AA6423"/>
<path d="M308.785 234.315C308.785 237.595 305.25 249.211 308.002 250.801C310.758 252.391 318.756 243.35 318.756 240.068C318.756 236.794 309.534 220.64 309.213 223.804C308.908 226.806 308.785 231.038 308.785 234.315Z" fill="#AA6423"/>
<path d="M310.92 241.87L316.938 250.801L322.954 248.427L321.172 246.328V241.469L312.699 236.576V241.824L310.92 241.87Z" fill="#F4BB88"/>
<path d="M299.466 255.056L302.429 241.863L311.445 241.837C312.604 244.468 314.557 246.901 316.73 248.155C319.075 249.51 321.153 249.187 322.269 247.614L330.95 258.332L333.915 274.946L299.466 255.056Z" fill="#F1E748"/>
<path d="M310.425 228.878C310.425 228.878 310.035 227.093 309.284 226.829C308.526 226.564 309.134 228.697 309.284 229.974C309.431 231.251 310.276 232.805 310.579 232.359C310.881 231.914 310.425 228.878 310.425 228.878Z" fill="#FBCC9B"/>
<path d="M322.954 236.109C322.954 236.109 323.343 234.774 324.098 235.383C324.853 235.993 324.249 237.429 324.098 238.532C323.95 239.632 323.104 240.212 322.803 239.419C322.501 238.625 322.954 236.109 322.954 236.109Z" fill="#FBCC9B"/>
<path d="M316.473 224.021V223.995L316.692 224.133L316.91 224.246L316.909 224.273L323.253 228.291C323.253 228.291 323.585 238.41 322.699 240.825C322.155 242.303 319.467 243.482 318.767 243.617C318.302 243.705 317.432 243.653 316.909 243.367C316.909 243.367 316.843 243.331 316.74 243.273C316.722 243.261 316.71 243.254 316.692 243.244C316.674 243.235 316.663 243.23 316.647 243.217C316.54 243.157 316.473 243.115 316.473 243.115C315.95 242.799 315.084 241.848 314.616 241.222C313.919 240.28 311.22 235.721 310.679 233.62C309.8 230.185 310.13 220.716 310.13 220.716L316.473 224.021Z" fill="#FBCC9B"/>
<path d="M320.58 227.915C320.58 227.915 312.547 233.286 308.908 229.621C308.704 228.429 308.892 228.748 308.719 227.414C308.588 226.436 308.68 215.982 316.748 219.949C319.518 221.487 321.323 225.095 321.323 225.095C321.323 225.095 323.549 226.441 324.016 229.212C324.477 231.985 324.098 235.383 324.098 235.383C324.098 235.383 322.939 235.321 322.804 237.114C322.748 235.788 322.673 234.073 322.154 232.822C321.636 231.566 321.095 231.643 320.58 227.915Z" fill="#AA6423"/>
<path d="M252.27 218.311L254.091 217.073L254.089 88.281L178.641 44.7209L176.258 45.6348L252.27 218.311Z" fill="#E9E8E8"/>
<path d="M176.259 174.427L252.27 218.311L252.269 89.5188L176.258 45.6348L176.259 174.427Z" fill="#FDFDFD"/>
<path d="M203.164 121.783L248.065 147.707V144.212L203.164 118.288V121.783Z" fill="#C2C1C1"/>
<path d="M180.965 114.205L248.065 152.943V151.779L180.965 113.04V114.205Z" fill="#C2C1C1"/>
<path d="M180.965 119.066L248.065 157.805V156.641L180.965 117.9V119.066Z" fill="#C2C1C1"/>
<path d="M180.965 123.925L248.065 162.666V161.5L180.965 122.761V123.925Z" fill="#C2C1C1"/>
<path d="M180.965 128.787L248.065 167.525V166.362L180.965 127.622V128.787Z" fill="#C2C1C1"/>
<path d="M180.965 133.647L248.065 172.387V171.221L180.965 132.481V133.647Z" fill="#C2C1C1"/>
<path d="M203.164 156.242L248.065 182.167V178.668L203.164 152.748V156.242Z" fill="#C2C1C1"/>
<path d="M180.965 148.664L248.065 187.404V186.238L180.965 147.498V148.664Z" fill="#C2C1C1"/>
<path d="M180.965 153.523L248.065 192.262V191.1L180.965 152.359V153.523Z" fill="#C2C1C1"/>
<path d="M180.966 158.383L248.065 197.124V195.958L180.966 157.219V158.383Z" fill="#C2C1C1"/>
<path d="M180.965 163.246L248.065 201.984V200.818L180.965 162.08V163.246Z" fill="#C2C1C1"/>
<path d="M180.965 168.105L248.065 206.844V205.68L180.965 166.942V168.105Z" fill="#C2C1C1"/>
<path d="M211.685 125.541L248.256 146.658V96.1592L211.685 75.0442V125.541Z" fill="#EE7594"/>
<path d="M225.962 108.379L215.616 108.409L211.757 125.582L231.429 136.94L230.563 111.812L225.962 108.379Z" fill="#434342"/>
<path d="M230.634 111.855L234.334 112.752L244.327 124.986L248.184 146.616L230.634 136.482V111.855Z" fill="#434342"/>
<path d="M229.972 119.54L225.811 108.567L229.986 112.839L234.399 113.14L229.996 119.555V119.601L229.986 119.571L229.972 119.586V119.54Z" fill="#FDFDFD"/>
<path d="M223.665 99.7404C223.665 99.7404 223.273 97.9403 222.513 97.6769C221.752 97.4135 222.362 99.5589 222.513 100.845C222.666 102.13 223.513 103.692 223.818 103.245C224.123 102.798 223.665 99.7404 223.665 99.7404Z" fill="#FBCC9B"/>
<path d="M236.277 107.019C236.277 107.019 236.668 105.674 237.429 106.289C238.19 106.903 237.583 108.349 237.43 109.457C237.276 110.566 236.427 111.148 236.123 110.349C235.818 109.55 236.277 107.019 236.277 107.019Z" fill="#FBCC9B"/>
<path d="M229.754 94.8521V94.8256L229.976 94.9655L230.194 95.079V95.1029L236.578 99.1505L236.227 111.42C236.227 111.42 232.765 114.807 232.062 114.942C231.593 115.032 230.719 114.612 230.194 114.323C230.194 114.323 230.128 114.291 230.021 114.228C230.005 114.218 229.989 114.209 229.974 114.201C229.957 114.192 229.944 114.184 229.926 114.175C229.819 114.113 229.752 114.07 229.752 114.07C229.227 113.749 228.355 113.162 227.884 112.531C227.181 111.584 223.72 104.196 223.72 104.196L223.368 91.5218L229.754 94.8521Z" fill="#FBCC9B"/>
<path d="M233.378 100.364C233.378 100.364 229.128 99.0648 225.879 96.4366C225.628 98.6021 224.878 98.9185 224.628 99.4681C224.378 100.018 224.278 101.748 224.278 101.748L223.631 100.914C223.631 100.914 223.131 95.3109 223.029 93.8676C222.928 92.423 222.878 90.5474 223.928 91.039C225.128 89.6549 228.426 90.6356 230.878 92.3953C233.327 94.1563 234.426 94.0428 235.178 93.8941C235.677 94.934 234.576 95.3386 234.576 95.3386C234.576 95.3386 236.226 96.8109 236.577 96.3773C236.627 96.8702 236.276 97.5925 235.427 97.3303C236.826 98.887 237.645 101.339 236.327 108.025L235.829 107.827C235.829 107.827 235.977 105.904 235.328 104.605C234.679 103.309 233.528 101.2 233.378 100.364Z" fill="#AA6423"/>
<path d="M165.955 247.037L167.776 245.8L167.774 117.007L92.326 73.4483L89.9424 74.3597L165.955 247.037Z" fill="#E9E8E8"/>
<path d="M89.9436 203.153L165.955 247.037L165.953 118.246L89.9424 74.3597L89.9436 203.153Z" fill="#FDFDFD"/>
<path d="M116.848 150.509L161.75 176.433V172.938L116.848 147.015V150.509Z" fill="#C2C1C1"/>
<path d="M94.6517 142.931L161.75 181.671V180.505L94.6517 141.766V142.931Z" fill="#C2C1C1"/>
<path d="M94.6517 147.793L161.75 186.531V185.367L94.6517 146.627V147.793Z" fill="#C2C1C1"/>
<path d="M94.6517 152.652L161.75 191.392V190.227L94.6517 151.488V152.652Z" fill="#C2C1C1"/>
<path d="M94.6517 157.514L161.75 196.253V195.088L94.6517 156.348V157.514Z" fill="#C2C1C1"/>
<path d="M94.6517 162.373L161.75 201.112V199.948L94.6517 161.207V162.373Z" fill="#C2C1C1"/>
<path d="M116.848 184.97L161.75 210.892V207.397L116.848 181.473V184.97Z" fill="#C2C1C1"/>
<path d="M94.6517 177.389L161.75 216.129V214.964L94.6517 176.224V177.389Z" fill="#C2C1C1"/>
<path d="M94.6517 182.251L161.75 220.988V219.826L94.6517 181.085V182.251Z" fill="#C2C1C1"/>
<path d="M94.6517 187.11L161.75 225.85V224.684L94.6517 185.945V187.11Z" fill="#C2C1C1"/>
<path d="M94.6517 191.972L161.75 230.71V229.546L94.6517 190.806V191.972Z" fill="#C2C1C1"/>
<path d="M94.6517 196.83L161.75 235.57V234.407L94.6517 195.668V196.83Z" fill="#C2C1C1"/>
<path d="M124.309 155.949L161.332 177.325V126.206L124.309 104.829V155.949Z" fill="#B1DACF"/>
<path d="M140.864 138.89C140.864 142.23 143.139 146.25 145.945 147.871C148.746 149.49 151.02 148.094 151.02 144.756C151.02 141.416 148.746 137.396 145.945 135.776C143.138 134.157 140.864 135.551 140.864 138.89Z" fill="#AA6423"/>
<path d="M134.767 135.373C134.767 138.712 137.041 142.732 139.847 144.35C142.651 145.97 144.924 144.577 144.924 141.234C144.924 137.897 142.651 133.877 139.847 132.257C137.043 130.637 134.767 132.033 134.767 135.373Z" fill="#AA6423"/>
<path d="M136.945 143.07L143.072 152.171L149.206 149.752L147.388 147.613V142.661L138.76 137.675V143.024L136.945 143.07Z" fill="#F4BB88"/>
<path d="M125.271 156.475L128.289 143.034L137.473 143.007C138.659 145.685 140.646 148.166 142.862 149.447C145.25 150.826 147.371 150.499 148.508 148.897L157.352 159.817L160.373 176.742L125.271 156.475Z" fill="#ED6D94"/>
<path d="M136.439 129.829C136.439 129.829 136.044 128.01 135.271 127.743C134.502 127.476 135.117 129.649 135.271 130.949C135.426 132.252 136.287 133.834 136.592 133.38C136.901 132.928 136.439 129.829 136.439 129.829Z" fill="#FBCC9B"/>
<path d="M149.203 137.199C149.203 137.199 149.602 135.839 150.373 136.46C151.14 137.084 150.526 138.543 150.373 139.668C150.221 140.793 149.355 141.382 149.048 140.573C148.741 139.761 149.203 137.199 149.203 137.199Z" fill="#FBCC9B"/>
<path d="M142.602 124.88V124.855L142.826 124.996L143.048 125.115V125.138L149.509 129.235C149.509 129.235 149.846 139.545 148.945 142.006C148.393 143.51 145.65 144.713 144.938 144.85C144.461 144.938 143.582 144.886 143.047 144.594C143.047 144.594 142.979 144.56 142.871 144.498C142.854 144.485 142.842 144.479 142.825 144.468C142.806 144.46 142.794 144.453 142.776 144.442C142.668 144.378 142.601 144.337 142.601 144.337C142.068 144.011 141.185 143.046 140.709 142.405C139.999 141.449 137.25 136.804 136.7 134.661C135.798 131.163 136.137 121.513 136.137 121.513L142.602 124.88Z" fill="#FBCC9B"/>
<path d="M146.783 128.85C146.783 128.85 143.416 130.125 137.734 127.543C137.177 129.382 136.704 130.113 136.495 130.688C136.284 129.47 136.075 128.644 135.47 127.844C134.866 127.042 134.285 115.767 142.882 120.731C145.707 122.301 147.541 125.973 147.541 125.973C147.541 125.973 149.811 127.345 150.282 130.171C150.755 132.998 150.372 136.46 150.372 136.46C150.372 136.46 149.19 136.398 149.052 138.223C148.992 136.87 148.915 135.125 148.388 133.849C147.862 132.572 147.311 132.648 146.783 128.85Z" fill="#AA6423"/>
<path d="M142.82 153.257C139.059 151.087 135.445 146.542 133.196 142.166L137.473 142.795C138.659 145.474 140.646 147.953 142.862 149.232C145.25 150.611 147.371 150.285 148.508 148.68L152.95 153.444C150.703 155.384 146.693 155.495 142.82 153.257Z" fill="#F6BBD4"/>
<path d="M335.58 472.881L257.711 427.922V410.472L362.173 367.612L440.041 412.569L335.58 472.881Z" fill="#ECCC47"/>
<path d="M362.173 362.003L261.583 408.675V424.549L335.58 467.271L440.041 406.96L362.173 362.003Z" fill="#E5E5E5"/>
<path d="M362.173 357.947L345.496 365.684V415.662H261.583V420.491L335.58 463.214L440.041 402.902L362.173 357.947Z" fill="#F4F4F4"/>
<path d="M362.173 354.228L345.496 361.965V415.662H261.583V416.774L335.58 459.496L440.041 399.185L362.173 354.228Z" fill="white"/>
<path d="M335.58 455.428L257.711 410.472L362.173 350.16L440.041 395.116L335.58 455.428Z" fill="#FCF18C"/>
<path d="M333.041 443.853L270.005 407.458V393.328L354.571 358.635L417.607 395.026L333.041 443.853Z" fill="#E63D71"/>
<path d="M354.571 354.092L273.138 391.875V404.725L333.041 439.31L417.607 390.485L354.571 354.092Z" fill="#E5E5E5"/>
<path d="M354.571 350.809L341.069 357.072V397.531H273.138V401.441L333.041 436.026L417.607 387.202L354.571 350.809Z" fill="#F4F4F4"/>
<path d="M354.571 347.797L341.069 354.063V397.531H273.138V398.432L333.041 433.017L417.607 384.192L354.571 347.797Z" fill="white"/>
<path d="M333.041 429.724L270.005 393.328L354.571 344.506L417.607 380.9L333.041 429.724Z" fill="#ED6D94"/>
<path d="M334.636 422.942L280.927 391.935V379.897L352.978 350.337L406.685 381.342L334.636 422.942Z" fill="#805AA2"/>
<path d="M352.978 346.466L283.597 378.657V389.606L334.636 419.072L406.685 377.475L352.978 346.466Z" fill="#E5E5E5"/>
<path d="M352.978 343.669L341.474 349.007V383.477H283.597V386.808L334.636 416.275L406.685 374.678L352.978 343.669Z" fill="#F4F4F4"/>
<path d="M352.978 341.103L341.474 346.442V383.477H283.597V384.244L334.636 413.71L406.685 372.112L352.978 341.103Z" fill="white"/>
<path d="M334.636 410.905L280.927 379.897L352.978 338.299L406.685 369.308L334.636 410.905Z" fill="#B18DC0"/>
<path d="M382.776 221.514H360.183V290.827H382.776V221.514Z" fill="url(#paint2_linear)"/>
<path d="M408.862 223.779H386.269V301.813H408.862V223.779Z" fill="url(#paint3_linear)"/>
<path d="M434.947 234.765H412.354V312.798H434.947V234.765Z" fill="url(#paint4_linear)"/>
<path d="M461.031 245.752H438.439V323.785H461.031V245.752Z" fill="url(#paint5_linear)"/>
<path d="M371.481 324.97L360.183 318.447V281.938L371.481 288.46V324.97Z" fill="#EE7594"/>
<path d="M382.774 318.447L371.473 324.97V288.46L382.773 281.938L382.774 318.447Z" fill="#EB5C86"/>
<path d="M371.478 288.46L360.18 281.938L371.478 275.415L382.776 281.938L371.478 288.46Z" fill="#F29DB7"/>
<path d="M397.57 340.091L386.274 333.567V278.334L397.57 284.854V340.091Z" fill="#4CA3DB"/>
<path d="M408.863 333.567L397.565 340.091V284.854L408.86 278.334L408.863 333.567Z" fill="#3196CA"/>
<path d="M397.569 284.854L386.271 278.334L397.569 271.81L408.866 278.334L397.569 284.854Z" fill="#83D0F3"/>
<path d="M423.662 354.987L412.361 348.467V311.736L423.662 318.259V354.987Z" fill="#A76CAB"/>
<path d="M434.955 348.467L423.655 354.987V318.259L434.952 311.736L434.955 348.467Z" fill="#B07AB3"/>
<path d="M423.659 318.26L412.361 311.736L423.657 305.214L434.957 311.736L423.659 318.26Z" fill="#C18EBF"/>
<path d="M423.63 355.165L412.329 348.641V311.91L423.63 318.432V355.165Z" fill="#58B892"/>
<path d="M434.921 348.641L423.624 355.165V318.432L434.919 311.91L434.921 348.641Z" fill="#35AB7A"/>
<path d="M423.628 318.433L412.327 311.91L423.625 305.389L434.924 311.91L423.628 318.433Z" fill="#72C09E"/>
<path d="M449.752 370.258L438.454 363.735V294.982L449.752 301.504V370.258Z" fill="#B1DACF"/>
<path d="M461.042 363.735L449.747 370.258V301.504L461.042 294.982V363.735Z" fill="#90CCB6"/>
<path d="M449.748 301.505L438.451 294.982L449.748 288.46L461.048 294.982L449.748 301.505Z" fill="#CEE7DF"/>
<path d="M350.187 324.713L349.612 324.381L352.867 322.502L351.353 322.045L351.796 321.789L353.959 322.431L354.049 322.483L350.187 324.713ZM354.052 324.719L356.197 323.744L358.502 325.075L358.05 325.336L356.23 324.285L355.046 324.812C355.378 324.875 355.683 324.987 355.964 325.149C356.373 325.386 356.583 325.641 356.592 325.914C356.602 326.186 356.41 326.436 356.016 326.664C355.62 326.892 355.182 327 354.702 326.987C354.226 326.974 353.763 326.838 353.314 326.579C352.916 326.35 352.686 326.108 352.623 325.854C352.56 325.6 352.677 325.367 352.975 325.155L353.516 325.467C353.331 325.614 353.256 325.763 353.292 325.914C353.329 326.064 353.469 326.209 353.712 326.349C353.978 326.502 354.264 326.578 354.569 326.575C354.876 326.574 355.166 326.494 355.439 326.337C355.696 326.189 355.819 326.022 355.81 325.838C355.803 325.653 355.664 325.482 355.392 325.325C355.143 325.182 354.901 325.095 354.665 325.067L354.408 325.041L354.052 324.719ZM358.47 325.911C358.701 325.777 358.976 325.717 359.297 325.729C359.619 325.743 359.916 325.828 360.185 325.983C360.459 326.142 360.605 326.313 360.623 326.498C360.644 326.683 360.535 326.845 360.296 326.983L360.108 327.091C359.876 327.225 359.6 327.285 359.279 327.271C358.962 327.256 358.67 327.172 358.405 327.019C358.137 326.864 357.988 326.694 357.959 326.509C357.932 326.322 358.041 326.158 358.285 326.017L358.47 325.911ZM358.693 326.274C358.556 326.353 358.488 326.445 358.489 326.549C358.491 326.652 358.569 326.748 358.721 326.836C358.868 326.92 359.028 326.963 359.203 326.965C359.38 326.967 359.543 326.925 359.693 326.839L359.885 326.728C360.023 326.648 360.092 326.557 360.093 326.454C360.094 326.351 360.018 326.256 359.866 326.168C359.714 326.08 359.548 326.036 359.37 326.037C359.192 326.038 359.03 326.08 358.886 326.163L358.693 326.274ZM358.499 328.424C358.729 328.291 359.004 328.231 359.323 328.244C359.646 328.258 359.942 328.342 360.212 328.498C360.481 328.654 360.629 328.824 360.654 329.01C360.679 329.195 360.57 329.358 360.325 329.499L360.138 329.608C359.907 329.741 359.631 329.801 359.308 329.787C358.989 329.774 358.696 329.69 358.428 329.535C358.16 329.38 358.012 329.21 357.983 329.025C357.956 328.839 358.064 328.675 358.309 328.533L358.499 328.424ZM358.719 328.789C358.58 328.869 358.511 328.961 358.512 329.065C358.515 329.169 358.592 329.264 358.745 329.352C358.893 329.438 359.055 329.481 359.23 329.483C359.406 329.483 359.569 329.44 359.719 329.354L359.914 329.241C360.053 329.161 360.121 329.069 360.119 328.966C360.118 328.864 360.043 328.769 359.892 328.683C359.746 328.598 359.583 328.555 359.402 328.552C359.225 328.549 359.063 328.591 358.915 328.676L358.719 328.789ZM356.713 328.145L356.563 327.857L361.764 327.392L361.914 327.679L356.713 328.145Z" fill="#FDFDFD"/>
<path d="M377.719 340.551L374.771 338.849L375.122 338.646L378.158 338.692C378.612 338.696 378.952 338.683 379.177 338.653C379.406 338.623 379.596 338.565 379.746 338.478C379.946 338.362 380.04 338.226 380.026 338.07C380.012 337.914 379.887 337.767 379.65 337.631C379.366 337.466 379.075 337.379 378.777 337.367C378.483 337.356 378.213 337.422 377.967 337.564L377.395 337.234C377.749 337.03 378.168 336.941 378.652 336.969C379.138 336.997 379.604 337.141 380.051 337.399C380.47 337.64 380.706 337.886 380.761 338.135C380.817 338.383 380.69 338.597 380.378 338.777C380 338.995 379.267 339.092 378.18 339.068L375.859 339.017L378.117 340.321L377.719 340.551ZM380.514 339.94L382.659 338.965L384.964 340.296L384.513 340.557L382.693 339.506L381.509 340.033C381.84 340.096 382.146 340.209 382.426 340.37C382.836 340.607 383.045 340.862 383.054 341.135C383.064 341.407 382.873 341.657 382.478 341.885C382.082 342.114 381.644 342.221 381.164 342.208C380.688 342.196 380.225 342.059 379.776 341.8C379.379 341.571 379.148 341.329 379.085 341.075C379.022 340.821 379.14 340.588 379.437 340.376L379.978 340.688C379.793 340.835 379.718 340.984 379.754 341.135C379.792 341.285 379.932 341.43 380.175 341.57C380.441 341.723 380.726 341.799 381.031 341.796C381.339 341.795 381.629 341.715 381.901 341.558C382.158 341.41 382.282 341.243 382.272 341.059C382.266 340.874 382.127 340.704 381.855 340.547C381.606 340.403 381.363 340.317 381.128 340.288L380.871 340.262L380.514 339.94ZM384.933 341.132C385.163 340.999 385.439 340.938 385.759 340.951C386.082 340.964 386.378 341.049 386.648 341.205C386.922 341.363 387.068 341.534 387.085 341.719C387.107 341.904 386.998 342.066 386.758 342.204L386.571 342.312C386.339 342.446 386.062 342.506 385.741 342.492C385.424 342.477 385.133 342.393 384.867 342.24C384.599 342.085 384.451 341.915 384.422 341.73C384.394 341.543 384.503 341.38 384.748 341.238L384.933 341.132ZM385.156 341.495C385.018 341.575 384.95 341.666 384.951 341.77C384.954 341.873 385.031 341.969 385.184 342.057C385.33 342.142 385.491 342.184 385.665 342.186C385.842 342.188 386.005 342.146 386.155 342.06L386.348 341.949C386.485 341.87 386.554 341.778 386.555 341.675C386.557 341.573 386.481 341.477 386.328 341.389C386.176 341.301 386.011 341.257 385.832 341.258C385.654 341.259 385.493 341.301 385.348 341.384L385.156 341.495ZM384.961 343.645C385.192 343.512 385.467 343.452 385.785 343.465C386.108 343.479 386.404 343.563 386.674 343.719C386.944 343.875 387.091 344.046 387.117 344.231C387.142 344.416 387.032 344.579 386.788 344.721L386.6 344.829C386.37 344.962 386.093 345.022 385.77 345.008C385.452 344.995 385.158 344.911 384.891 344.756C384.623 344.602 384.474 344.432 384.445 344.246C384.418 344.06 384.527 343.896 384.771 343.755L384.961 343.645ZM385.182 344.01C385.043 344.09 384.974 344.182 384.975 344.287C384.977 344.39 385.055 344.485 385.207 344.573C385.356 344.659 385.517 344.702 385.692 344.704C385.869 344.704 386.032 344.661 386.181 344.575L386.377 344.462C386.516 344.382 386.584 344.29 386.581 344.187C386.581 344.085 386.505 343.991 386.355 343.904C386.208 343.819 386.045 343.776 385.864 343.773C385.687 343.77 385.525 343.812 385.377 343.897L385.182 344.01ZM383.175 343.367L383.025 343.079L388.226 342.613L388.376 342.901L383.175 343.367Z" fill="#FDFDFD"/>
<path d="M403.116 355.156L402.541 354.824L405.796 352.945L404.281 352.489L404.725 352.233L406.888 352.875L406.977 352.927L403.116 355.156ZM406.98 355.162L409.125 354.188L411.43 355.519L410.979 355.779L409.159 354.729L407.975 355.255C408.306 355.318 408.612 355.431 408.892 355.593C409.302 355.829 409.511 356.084 409.52 356.358C409.53 356.63 409.339 356.88 408.944 357.107C408.548 357.336 408.11 357.444 407.63 357.431C407.154 357.418 406.691 357.282 406.242 357.023C405.845 356.793 405.614 356.551 405.551 356.297C405.488 356.044 405.606 355.811 405.903 355.598L406.444 355.911C406.259 356.058 406.184 356.207 406.22 356.357C406.258 356.507 406.398 356.652 406.641 356.792C406.907 356.946 407.192 357.021 407.497 357.019C407.805 357.017 408.095 356.938 408.367 356.78C408.624 356.632 408.748 356.466 408.738 356.281C408.732 356.097 408.593 355.926 408.321 355.769C408.072 355.625 407.829 355.539 407.594 355.511L407.337 355.484L406.98 355.162ZM411.399 356.354C411.629 356.221 411.905 356.161 412.225 356.173C412.548 356.186 412.844 356.271 413.114 356.427C413.388 356.585 413.534 356.757 413.551 356.942C413.573 357.127 413.464 357.288 413.224 357.427L413.037 357.535C412.805 357.669 412.528 357.729 412.207 357.714C411.89 357.7 411.599 357.616 411.333 357.462C411.065 357.308 410.917 357.138 410.888 356.952C410.861 356.766 410.969 356.602 411.214 356.461L411.399 356.354ZM411.622 356.718C411.484 356.797 411.416 356.889 411.417 356.993C411.42 357.096 411.497 357.191 411.65 357.279C411.796 357.364 411.957 357.407 412.131 357.408C412.308 357.411 412.471 357.369 412.621 357.282L412.814 357.171C412.951 357.092 413.02 357.001 413.021 356.898C413.023 356.795 412.947 356.699 412.795 356.611C412.642 356.523 412.477 356.48 412.298 356.48C412.12 356.481 411.959 356.523 411.814 356.606L411.622 356.718ZM411.427 358.867C411.658 358.734 411.933 358.674 412.251 358.688C412.574 358.701 412.87 358.786 413.14 358.942C413.41 359.097 413.557 359.268 413.583 359.453C413.608 359.638 413.498 359.802 413.254 359.943L413.066 360.051C412.836 360.184 412.559 360.244 412.236 360.23C411.918 360.217 411.624 360.133 411.357 359.978C411.089 359.824 410.94 359.654 410.911 359.468C410.884 359.282 410.993 359.118 411.237 358.977L411.427 358.867ZM411.648 359.232C411.509 359.313 411.44 359.405 411.441 359.509C411.443 359.612 411.521 359.708 411.673 359.796C411.822 359.881 411.983 359.925 412.158 359.926C412.335 359.926 412.498 359.883 412.647 359.797L412.843 359.684C412.982 359.604 413.05 359.512 413.047 359.409C413.047 359.307 412.971 359.213 412.821 359.126C412.674 359.042 412.511 358.998 412.33 358.995C412.153 358.993 411.991 359.034 411.843 359.119L411.648 359.232ZM409.641 358.589L409.491 358.301L414.692 357.835L414.842 358.123L409.641 358.589Z" fill="#FDFDFD"/>
<path d="M431.404 369.939L432.028 370.3L431.629 370.53L431.005 370.17L430.113 370.685L429.538 370.353L430.43 369.838L428.382 368.655L428.669 368.489L433.347 368.114L433.956 368.466L431.404 369.939ZM429.429 368.799L430.829 369.608L432.714 368.519L432.54 368.541L429.429 368.799ZM433.442 370.382L435.588 369.408L437.893 370.739L437.441 370.999L435.621 369.948L434.437 370.475C434.769 370.538 435.074 370.651 435.355 370.812C435.764 371.049 435.974 371.304 435.982 371.577C435.993 371.85 435.801 372.1 435.407 372.327C435.011 372.556 434.573 372.664 434.093 372.651C433.617 372.638 433.154 372.502 432.705 372.242C432.307 372.013 432.077 371.771 432.014 371.517C431.951 371.263 432.068 371.03 432.366 370.818L432.907 371.13C432.722 371.278 432.647 371.427 432.683 371.577C432.72 371.727 432.86 371.872 433.103 372.012C433.369 372.166 433.655 372.241 433.96 372.238C434.267 372.237 434.557 372.158 434.83 372C435.087 371.852 435.21 371.685 435.201 371.501C435.194 371.316 435.055 371.146 434.783 370.989C434.534 370.845 434.292 370.759 434.056 370.731L433.799 370.704L433.442 370.382ZM437.861 371.574C438.092 371.441 438.367 371.38 438.688 371.393C439.01 371.406 439.307 371.491 439.576 371.647C439.85 371.805 439.996 371.977 440.014 372.161C440.035 372.347 439.926 372.508 439.687 372.646L439.499 372.755C439.267 372.889 438.991 372.948 438.67 372.934C438.353 372.919 438.061 372.836 437.796 372.682C437.528 372.528 437.379 372.357 437.35 372.172C437.323 371.986 437.432 371.822 437.676 371.681L437.861 371.574ZM438.084 371.937C437.947 372.017 437.879 372.108 437.88 372.213C437.882 372.316 437.96 372.411 438.112 372.499C438.259 372.584 438.419 372.627 438.594 372.628C438.771 372.631 438.934 372.589 439.084 372.502L439.276 372.391C439.414 372.312 439.483 372.221 439.484 372.118C439.485 372.015 439.409 371.919 439.257 371.831C439.105 371.743 438.939 371.7 438.761 371.7C438.583 371.701 438.421 371.743 438.277 371.826L438.084 371.937ZM437.89 374.087C438.12 373.954 438.395 373.894 438.714 373.907C439.037 373.921 439.333 374.006 439.603 374.161C439.872 374.317 440.02 374.488 440.045 374.673C440.07 374.858 439.961 375.022 439.716 375.163L439.529 375.271C439.298 375.404 439.022 375.464 438.699 375.45C438.38 375.437 438.087 375.353 437.819 375.198C437.551 375.044 437.403 374.874 437.374 374.688C437.347 374.502 437.455 374.338 437.7 374.197L437.89 374.087ZM438.11 374.452C437.971 374.532 437.902 374.625 437.903 374.729C437.906 374.832 437.983 374.927 438.136 375.015C438.284 375.101 438.446 375.145 438.621 375.146C438.797 375.146 438.96 375.103 439.11 375.017L439.305 374.904C439.444 374.824 439.512 374.732 439.51 374.629C439.509 374.527 439.434 374.433 439.283 374.346C439.137 374.261 438.974 374.218 438.793 374.215C438.616 374.213 438.454 374.254 438.306 374.339L438.11 374.452ZM436.104 373.809L435.954 373.521L441.155 373.055L441.305 373.343L436.104 373.809Z" fill="#FDFDFD"/>
<path d="M200.126 295.929C200.126 295.929 199.73 298.97 200.004 299.667C200.279 300.366 201.907 300.218 202.519 300.046C204.523 299.478 209.344 297.087 209.221 295.106C209.17 294.296 207.953 294.376 205.989 295.295C204.024 296.214 202.916 296.056 202.661 295.485C202.408 294.914 200.126 295.929 200.126 295.929Z" fill="#2E2D2E"/>
<path d="M186.055 294.49C186.055 294.49 185.659 297.533 185.934 298.23C186.207 298.929 187.837 298.78 188.449 298.607C190.452 298.041 195.274 295.65 195.151 293.667C195.102 292.859 193.883 292.939 191.918 293.856C189.952 294.777 188.844 294.618 188.59 294.047C188.335 293.476 186.055 294.49 186.055 294.49Z" fill="#2E2D2E"/>
<path d="M173.277 200.048C173.277 200.048 169.134 207.473 168.627 222.937C169.473 225.895 177.923 224.205 178.852 222.937C179.781 221.67 178.852 218.966 178.852 218.966H175.134L176.258 211.534L173.277 200.048Z" fill="url(#paint6_linear)"/>
<path d="M185.331 294.575C185.147 291.886 183.713 265.413 183.625 264.587C182.799 256.876 175.726 250.231 175.308 248.592C173.784 242.629 175.308 234.598 175.308 234.598L189.234 235.18C189.234 235.18 192.468 248.331 192.62 263.218C192.647 266.009 189.724 291.735 189.7 294.454L185.331 294.575Z" fill="url(#paint7_linear)"/>
<path d="M194.279 266.372C193.091 263.595 187.399 254.682 186.204 252.062C180.609 241.504 181.932 235.285 181.932 235.285L199.333 234.597C199.333 234.597 202.385 256.053 203.74 261.529C203.958 262.403 203.279 295.367 203.465 296.086L199.916 296.424L194.279 266.372Z" fill="url(#paint8_linear)"/>
<path d="M189.213 211.472L204.9 220.333L216.541 199.722L200.854 190.862L189.213 211.472Z" fill="#E9E8E8"/>
<path d="M216.154 199.801L204.834 219.845L189.639 211.262L200.962 191.219L216.154 199.801Z" fill="url(#paint9_linear)"/>
<path d="M190.502 184.295C190.502 184.295 193.285 184.182 194.442 187.352C194.605 187.8 194.66 188.294 194.532 188.752C194.287 189.635 194.634 190.975 195 191.962C195.675 193.803 194.373 196.98 193.152 198.523C191.653 199.069 190.531 197.933 190.531 197.933L189.589 201.259L182.18 199.372C182.18 199.372 183.072 196.727 182.18 192.644C181.289 188.56 181.622 186.518 184.285 185.157C186.951 183.796 190.502 184.295 190.502 184.295Z" fill="url(#paint10_linear)"/>
<path d="M193.286 179.325C193.286 179.325 191.334 180.637 185.339 181.059C179.344 181.483 179.142 185.63 179.956 187.748C178.179 188.412 182.007 194.906 182.003 197.431C185.408 198.64 188.022 197.064 188.022 197.064C188.022 197.064 189.241 195.069 188.485 192.829C187.726 190.589 189.133 188.412 190.02 189.017C190.213 189.148 190.486 192.698 190.637 192.733C190.726 192.753 191.004 192.75 191.079 192.733C191.346 192.674 191.007 191.765 191.29 190.235C191.423 189.504 192.385 187.966 192.337 187.556C192.273 186.993 191.65 185.389 191.65 185.389L192.937 185.175C192.937 185.175 194.357 185.319 194.343 183.962C194.316 181.521 193.286 179.325 193.286 179.325Z" fill="#1E1E1C"/>
<path d="M199.902 207.253C199.902 207.253 196.614 203.373 189.746 200.816C186.496 199.604 182.878 199.193 182.878 199.193C182.878 199.193 176.698 198.566 173.635 199.798C171.899 200.497 170.632 208.973 172.874 214.549C175.113 220.124 176.601 226.667 174.888 229.809C173.175 232.952 172.134 242.084 172.134 242.084C172.134 242.084 174.711 243.744 179.707 244.715C179.707 244.715 181.286 236.511 181.49 236.511C181.599 236.511 182.315 245.219 182.315 245.219C187.496 245.872 194.266 245.447 201.69 241.71C200.956 237.585 197.984 229.59 197.195 225.739C196.402 221.887 199.902 207.253 199.902 207.253Z" fill="url(#paint11_linear)"/>
<path d="M207.069 217.306C207.069 217.306 206.827 215.196 207.069 213.892C207.311 212.589 206.798 211.843 206.472 211.376C206.146 210.911 206.705 209.655 207.73 210.773C208.754 211.889 208.894 213.209 208.894 213.209L211.499 208.599C211.499 208.599 213.675 213.291 209.98 219.45C207.559 220.693 207.069 217.306 207.069 217.306Z" fill="url(#paint12_linear)"/>
<path d="M201.416 214.448C202.302 211.854 201.671 208.921 199.682 207.035C199.269 206.642 198.797 206.296 198.26 206.032C195.04 204.446 192.821 207.165 192.696 213.018C192.57 218.87 193.181 227.414 196.551 232.844C198.613 235.967 206.853 234.597 211.099 219.585C210.026 218.062 206.197 217.037 206.197 217.037C206.197 217.037 202.408 226.67 200.955 225.396C199.062 223.735 200.209 217.978 201.416 214.448Z" fill="url(#paint13_linear)"/>
<path d="M210.388 302.528C203.657 306.415 192.744 306.415 186.014 302.528C179.285 298.643 179.283 292.343 186.014 288.456C192.746 284.571 203.657 284.571 210.387 288.456C217.118 292.343 217.118 298.643 210.388 302.528Z" fill="#EAEAEA"/>
<path d="M89.9121 290C81.9746 294.584 69.1046 294.582 61.1658 290C53.2282 285.417 53.227 277.988 61.1658 273.403C69.1033 268.819 81.9733 268.819 89.9108 273.403C97.8484 277.988 97.8496 285.418 89.9121 290Z" fill="#EAEAEA"/>
<path d="M80.8704 194.427C80.8704 194.427 83.9095 205.391 85.9616 208.302C88.0087 211.216 88.0629 207.012 88.4524 205.549C88.847 204.079 92.8668 187.321 93.6496 185.945C94.4324 184.568 99.177 182.583 99.1228 180.273C99.0698 177.966 97.8623 176.23 97.8623 176.23C97.8623 176.23 97.048 176.022 98.016 178.489C98.2265 179.034 97.7463 179.535 97.7463 179.535C97.7463 179.535 97.2988 177.556 95.9664 177.356C95.4244 177.698 95.7408 177.935 96.2563 178.227C96.7719 178.522 97.0026 180.045 97.0026 180.045C97.0026 180.045 96.2891 178.89 95.8215 178.618C95.3601 178.351 94.8761 179.117 95.1118 179.452C95.3551 179.785 95.3475 179.474 95.4345 179.237C95.524 179.004 96.0786 179.572 96.3194 180.199C96.5614 180.821 95.7194 180.967 95.7194 180.967C95.7194 180.967 93.9307 179.527 93.4277 180.662C94.0113 180.84 94.6063 181.218 94.658 181.58C94.7059 181.941 92.5668 182.609 91.9668 184.366C91.3655 186.123 86.1154 200.952 86.1154 200.952L82.7599 194.333C82.7612 194.332 80.6157 192.973 80.8704 194.427Z" fill="url(#paint14_linear)"/>
<path d="M72.5446 198.007C72.5446 198.007 72.5156 208.175 71.8298 211.671C71.1479 215.168 69.3869 211.354 68.4315 210.176C67.476 208.994 57.7661 195.567 56.4892 194.629C55.2148 193.692 50.3895 193.796 49.4984 191.663C48.6034 189.533 48.9992 187.459 48.9992 187.459C48.9992 187.459 49.6572 186.939 49.7794 189.587C49.8097 190.168 50.4526 190.43 50.4526 190.43C50.4526 190.43 50.0555 188.442 51.1875 187.713C51.8228 187.805 51.6299 188.151 51.2782 188.628C50.9253 189.108 51.3387 190.592 51.3387 190.592C51.3387 190.592 51.519 189.243 51.8316 188.809C52.1455 188.374 52.903 188.879 52.8198 189.279C52.7341 189.683 52.6169 189.395 52.4404 189.215C52.2614 189.036 51.9879 189.782 52.0244 190.454C52.056 191.12 52.8803 190.913 52.8803 190.913C52.8803 190.913 53.9291 188.866 54.8493 189.698C54.3879 190.099 54.001 190.685 54.1031 191.034C54.2039 191.384 56.4312 191.12 57.6943 192.48C58.9586 193.84 69.2848 204.091 69.2848 204.091L69.7046 196.645C69.7021 196.645 72.1803 196.574 72.5446 198.007Z" fill="url(#paint15_linear)"/>
<path d="M89.1759 229.66C89.1759 229.66 88.915 238.851 86.883 250.677C85.4321 258.68 84.7326 275.353 85.0124 278.576C85.2897 281.799 88.5078 284.619 88.5078 284.619C88.5078 284.619 87.6091 285.587 86.5225 285.086C85.4347 284.583 82.209 280.536 82.209 280.536C82.209 280.536 83.1619 280.626 82.9628 275.671C82.7611 270.711 78.9341 262.613 81.2497 253.952C83.564 245.293 83.5477 226.624 83.5477 226.624L89.1759 229.66Z" fill="url(#paint16_linear)"/>
<path d="M82.5128 280.283C82.5128 280.283 81.5207 281.266 82.151 283.693C82.7069 285.843 82.7069 285.843 82.7069 285.843C82.7069 285.843 85.954 286.006 87.3015 286.103C88.6453 286.205 91.0718 285.629 91.0718 285.629L90.7579 284.981L88.5091 284.618C88.5091 284.618 87.5902 285.495 86.699 285.154C85.8065 284.816 82.5128 280.283 82.5128 280.283Z" fill="#3D3D3D"/>
<path d="M88.2772 231.736C88.2772 231.736 87.715 246.725 86.0335 248.716C84.3481 250.696 70.0878 270.136 68.4542 273.122C66.997 275.207 67.9752 278.702 67.9752 278.702C67.9752 278.702 66.339 278.622 65.8524 277.307C65.3646 275.987 66.3163 271.751 66.3529 271.583C67.0411 271.133 69.2609 266.038 70.7698 260.711C72.2786 255.383 77.1468 253.973 81.488 249.396C83.4217 247.956 82.9187 246.864 82.2355 244.443C81.5535 242.024 81.0317 232 81.2145 231.21C81.3985 230.415 88.2772 231.736 88.2772 231.736Z" fill="url(#paint17_linear)"/>
<path d="M66.3528 271.582C66.3528 271.582 65.2662 271.638 64.7028 273.721C64.1419 275.798 63.5582 277.463 63.5582 277.463C63.5582 277.463 65.6242 280.166 66.8381 280.978C68.0558 281.837 69.3151 281.897 69.5369 281.339C68.8134 281.169 68.1213 278.273 68.1213 278.273C68.1213 278.273 67.4079 279.063 66.702 278.349C65.9936 277.632 66.0364 272.774 66.3528 271.582Z" fill="#3D3D3D"/>
<path d="M89.3309 251.033C90.1276 242.292 90.8738 233.323 91.0364 228.772C91.4083 218.205 86.075 209.014 85.3023 204.955C84.5245 200.889 85.0199 198.353 84.8724 196.684C84.725 195.019 80.4177 191.976 77.9206 190.682C75.4248 189.389 70.2453 189.572 70.2453 189.572C68.5915 189.567 69.1663 191.387 71.2399 194.209C73.3134 197.034 77.3194 201.601 78.0517 206.082C78.7866 210.566 72.0378 213.111 74.9534 218.288C76.4105 220.873 78.6404 225.272 78.8824 229.949C78.9946 232.096 79.3576 240.075 78.1501 249.606C81.5951 250.612 85.6477 251.42 89.3309 251.033Z" fill="#ED6D94"/>
<path d="M73.1634 201.8C73.1634 201.8 73.1924 192.39 72.2142 190.981C71.2398 189.567 69.9881 188.973 69.2734 190.183C68.5524 191.391 69.0364 200.785 69.0364 200.785C69.0364 200.785 71.0722 199.115 73.1634 201.8Z" fill="#ED6D94"/>
<path d="M70.5983 180.903C70.5983 180.903 72.4828 187.116 72.1626 189.589C72.9038 190.945 77.927 192.555 76.8139 190.463C75.7677 189.15 75.0088 187.376 75.416 186.081C74.753 185.155 70.5983 180.903 70.5983 180.903Z" fill="url(#paint18_linear)"/>
<path d="M67.9751 177.359C68.2499 182.621 72.2382 186.69 74.3042 186.586C76.1774 186.487 79.9174 182.016 79.6438 176.754C79.3728 171.491 76.5379 167.36 73.316 167.526C70.0979 167.693 67.7041 172.095 67.9751 177.359Z" fill="url(#paint19_linear)"/>
<path d="M77.2778 172.318C77.2778 172.318 74.1681 174.969 69.837 175.973C68.2323 176.604 76.2215 196.295 78.6871 198.661C76.4951 199.626 70.0878 195.678 68.8764 191.977C63.194 174.59 66.634 168.174 72.445 167.405C76.035 167.05 77.627 169.73 77.627 169.73C77.627 169.73 83.0334 173.394 80.3056 190.183C80.167 193.239 74.7039 190.672 75.416 186.083C77.4316 184.507 79.7586 176.912 77.2778 172.318Z" fill="#513B20"/>
<path d="M29.8266 351.242C10.8947 362.172 18.2575 379.47 37.1881 390.399C56.1186 401.328 88.3969 394.202 97.9051 388.751C116.868 377.879 117.311 362.169 98.379 351.239C79.4497 340.313 48.7572 340.312 29.8266 351.242ZM94.6933 388.693C77.7997 398.445 50.4085 398.445 33.5136 388.693C16.6213 378.939 16.6213 363.125 33.5149 353.372C50.4085 343.618 77.7984 343.617 94.692 353.371C111.586 363.125 111.587 378.939 94.6933 388.693Z" fill="#ADADAD"/>
<path d="M109.525 362.917V376.563H108.618C107.481 381.186 104.136 383.974 97.3983 387.865C80.5047 397.618 50.4071 397.618 33.5123 387.865C26.6575 383.907 23.3877 381.346 22.1461 376.563H21.1326V362.356C12.8144 372.706 16.0515 385.388 30.84 393.926C49.7705 404.857 80.4631 404.857 99.3937 393.926C113.917 385.542 117.286 373.164 109.525 362.917Z" fill="#E5E5E5"/>
<path d="M30.84 349.214C11.9082 360.145 11.9082 377.864 30.84 388.794C49.7706 399.723 80.4631 399.723 99.3937 388.794C118.326 377.863 118.326 360.144 99.3937 349.214C80.4631 338.285 49.7718 338.284 30.84 349.214ZM95.7067 386.665C78.8131 396.418 51.4219 396.418 34.527 386.665C17.6347 376.911 17.6347 361.098 34.5283 351.344C51.4219 341.591 78.8119 341.591 95.7054 351.343C112.6 361.098 112.602 376.911 95.7067 386.665Z" fill="white"/>
<path d="M125.865 402.787L101.209 388.711L101.204 388.719C100.69 388.374 99.9572 388.392 99.1391 388.865C97.5836 389.764 96.3231 391.947 96.3231 393.742C96.3231 394.188 96.4366 394.493 96.5765 394.798L96.8046 395.132C97.024 395.397 97.5105 395.655 97.6227 395.73L121.672 409.518L125.865 402.787Z" fill="#C2C1C1"/>
<path d="M175.633 425.507L113.639 390.12L113.625 390.138C112.332 389.271 110.488 389.32 108.434 390.507C104.524 392.764 101.354 398.254 101.354 402.771C101.354 403.893 101.641 404.654 101.994 405.423L102.565 406.261C103.116 406.929 104.34 407.577 104.622 407.765L165.087 442.436L175.633 425.507Z" fill="url(#paint20_linear)"/>
<path d="M177.628 430.044C177.628 434.559 174.458 440.05 170.548 442.307C166.637 444.565 163.468 442.736 163.468 438.219C163.468 433.704 166.638 428.215 170.548 425.956C174.458 423.698 177.628 425.528 177.628 430.044Z" fill="#EC668C"/>
<path d="M460.973 266.603L358.528 207.455V206.608L460.973 265.756V266.603Z" fill="#FDFDFD"/>
<path d="M460.973 257.21L358.528 198.063V197.217L460.973 256.363V257.21Z" fill="#FDFDFD"/>
<path d="M460.973 247.819L358.528 188.672V187.823L460.973 246.971V247.819Z" fill="#FDFDFD"/>
<path d="M460.973 238.426L358.528 179.28V178.431L460.973 237.579V238.426Z" fill="#FDFDFD"/>
<path d="M460.973 229.033L358.528 169.885V169.038L460.973 228.186V229.033Z" fill="#FDFDFD"/>
<path d="M460.973 219.64L358.528 160.494V159.647L460.973 218.793V219.64Z" fill="#FDFDFD"/>
<path d="M460.973 210.248L358.528 151.101V150.253L460.973 209.401V210.248Z" fill="#FDFDFD"/>
<path d="M460.973 200.28L358.528 141.134V140.286L460.973 199.434V200.28Z" fill="#FDFDFD"/>
<path d="M460.973 190.89L358.528 131.743V130.894L460.973 190.042V190.89Z" fill="#FDFDFD"/>
<path d="M460.973 181.497L358.528 122.35V121.502L460.973 180.65V181.497Z" fill="#FDFDFD"/>
<path d="M460.333 266.731L445.895 194.627L433.267 211.083L421.528 184.739L410.193 177.244L398.684 157.65L387.966 198.997L374.41 173.477L361.576 209.081L360.344 208.637L374.182 170.259L387.545 195.417L398.212 154.264L411.165 176.32L422.566 183.858L433.568 208.547L446.613 191.547L461.616 266.474L460.333 266.731Z" fill="#32378D"/>
<path d="M460.335 266.74L445.962 200.018L433.337 220.857L421.654 195.382L410.343 196.749L398.501 177.614L387.829 198.504L374.428 178.129L361.563 209.11L360.357 208.608L374.166 175.351L387.685 195.908L398.392 174.955L411.013 195.351L422.444 193.969L433.497 218.071L446.548 196.53L461.615 266.465L460.335 266.74Z" fill="#F1E748"/>
<path d="M460.363 266.829L445.809 227.555L432.998 228.279L421.844 202.314L410.643 214.412L398.251 199.036L387.606 203.712L374.389 190.26L361.5 209.226L360.42 208.492L374.204 188.205L387.907 202.153L398.641 197.436L410.714 212.415L422.252 199.951L433.837 226.922L446.7 226.196L461.588 266.374L460.363 266.829Z" fill="#EE7594"/>
<path d="M460.403 266.921L445.847 240.916L432.969 239.429L421.679 213.686L410.493 216.899L398.406 205.109L387.714 213.76L374.222 200.454L361.332 209.396L360.587 208.323L374.367 198.761L387.798 212.008L398.488 203.361L410.864 215.434L422.415 212.115L433.864 238.218L446.662 239.694L461.544 266.284L460.403 266.921Z" fill="#B18DC0"/>
<path d="M360.684 210.449C361.449 210.449 362.069 209.591 362.069 208.534C362.069 207.476 361.449 206.619 360.684 206.619C359.92 206.619 359.3 207.476 359.3 208.534C359.3 209.591 359.92 210.449 360.684 210.449Z" fill="#FDFDFD"/>
<path d="M374.244 202.193C375.008 202.193 375.628 201.337 375.628 200.28C375.628 199.223 375.008 198.367 374.244 198.367C373.48 198.367 372.86 199.223 372.86 200.28C372.86 201.337 373.48 202.193 374.244 202.193Z" fill="#FDFDFD"/>
<path d="M374.244 190.89C375.008 190.89 375.628 190.034 375.628 188.977C375.628 187.92 375.008 187.063 374.244 187.063C373.48 187.063 372.86 187.92 372.86 188.977C372.86 190.034 373.48 190.89 374.244 190.89Z" fill="#FDFDFD"/>
<path d="M374.244 178.78C375.008 178.78 375.628 177.924 375.628 176.868C375.628 175.812 375.008 174.956 374.244 174.956C373.48 174.956 372.86 175.812 372.86 176.868C372.86 177.924 373.48 178.78 374.244 178.78Z" fill="#FDFDFD"/>
<path d="M374.244 173.717C375.008 173.717 375.628 172.86 375.628 171.803C375.628 170.747 375.008 169.89 374.244 169.89C373.48 169.89 372.86 170.747 372.86 171.803C372.86 172.86 373.48 173.717 374.244 173.717Z" fill="#FDFDFD"/>
<path d="M398.312 158.09C399.077 158.09 399.697 157.234 399.697 156.178C399.697 155.122 399.077 154.266 398.312 154.266C397.548 154.266 396.928 155.122 396.928 156.178C396.928 157.234 397.548 158.09 398.312 158.09Z" fill="#FDFDFD"/>
<path d="M398.824 178.114C399.588 178.114 400.207 177.257 400.207 176.2C400.207 175.143 399.588 174.287 398.824 174.287C398.06 174.287 397.441 175.143 397.441 176.2C397.441 177.257 398.06 178.114 398.824 178.114Z" fill="#FDFDFD"/>
<path d="M398.291 200.281C399.055 200.281 399.675 199.425 399.675 198.369C399.675 197.313 399.055 196.457 398.291 196.457C397.527 196.457 396.907 197.313 396.907 198.369C396.907 199.425 397.527 200.281 398.291 200.281Z" fill="#FDFDFD"/>
<path d="M398.291 206.622C399.055 206.622 399.675 205.765 399.675 204.708C399.675 203.651 399.055 202.795 398.291 202.795C397.527 202.795 396.907 203.651 396.907 204.708C396.907 205.765 397.527 206.622 398.291 206.622Z" fill="#FDFDFD"/>
<path d="M410.624 218.15C411.388 218.15 412.007 217.294 412.007 216.237C412.007 215.18 411.388 214.324 410.624 214.324C409.86 214.324 409.241 215.18 409.241 216.237C409.241 217.294 409.86 218.15 410.624 218.15Z" fill="#FDFDFD"/>
<path d="M410.624 214.823C411.388 214.823 412.007 213.966 412.007 212.909C412.007 211.852 411.388 210.996 410.624 210.996C409.86 210.996 409.241 211.852 409.241 212.909C409.241 213.966 409.86 214.823 410.624 214.823Z" fill="#FDFDFD"/>
<path d="M410.624 197.828C411.388 197.828 412.007 196.972 412.007 195.915C412.007 194.858 411.388 194.001 410.624 194.001C409.86 194.001 409.241 194.858 409.241 195.915C409.241 196.972 409.86 197.828 410.624 197.828Z" fill="#FDFDFD"/>
<path d="M410.624 178.78C411.388 178.78 412.007 177.924 412.007 176.868C412.007 175.812 411.388 174.956 410.624 174.956C409.86 174.956 409.241 175.812 409.241 176.868C409.241 177.924 409.86 178.78 410.624 178.78Z" fill="#FDFDFD"/>
<path d="M422.059 186.419C422.824 186.419 423.444 185.563 423.444 184.506C423.444 183.449 422.824 182.592 422.059 182.592C421.295 182.592 420.675 183.449 420.675 184.506C420.675 185.563 421.295 186.419 422.059 186.419Z" fill="#FDFDFD"/>
<path d="M422.059 196.454C422.824 196.454 423.444 195.598 423.444 194.541C423.444 193.484 422.824 192.627 422.059 192.627C421.295 192.627 420.675 193.484 420.675 194.541C420.675 195.598 421.295 196.454 422.059 196.454Z" fill="#FDFDFD"/>
<path d="M422.059 203.211C422.824 203.211 423.444 202.354 423.444 201.297C423.444 200.24 422.824 199.384 422.059 199.384C421.295 199.384 420.675 200.24 420.675 201.297C420.675 202.354 421.295 203.211 422.059 203.211Z" fill="#FDFDFD"/>
<path d="M422.059 215.382C422.824 215.382 423.444 214.526 423.444 213.469C423.444 212.412 422.824 211.555 422.059 211.555C421.295 211.555 420.675 212.412 420.675 213.469C420.675 214.526 421.295 215.382 422.059 215.382Z" fill="#FDFDFD"/>
<path d="M433.577 241.038C434.341 241.038 434.961 240.181 434.961 239.124C434.961 238.068 434.341 237.211 433.577 237.211C432.813 237.211 432.193 238.068 432.193 239.124C432.193 240.181 432.813 241.038 433.577 241.038Z" fill="#FDFDFD"/>
<path d="M433.577 229.431C434.341 229.431 434.961 228.575 434.961 227.519C434.961 226.463 434.341 225.606 433.577 225.606C432.813 225.606 432.193 226.463 432.193 227.519C432.193 228.575 432.813 229.431 433.577 229.431Z" fill="#FDFDFD"/>
<path d="M433.577 220.848C434.341 220.848 434.961 219.991 434.961 218.935C434.961 217.878 434.341 217.021 433.577 217.021C432.813 217.021 432.193 217.878 432.193 218.935C432.193 219.991 432.813 220.848 433.577 220.848Z" fill="#FDFDFD"/>
<path d="M433.577 211.555C434.341 211.555 434.961 210.699 434.961 209.642C434.961 208.585 434.341 207.728 433.577 207.728C432.813 207.728 432.193 208.585 432.193 209.642C432.193 210.699 432.813 211.555 433.577 211.555Z" fill="#FDFDFD"/>
<path d="M446.238 194.716C447.002 194.716 447.622 193.859 447.622 192.803C447.622 191.746 447.002 190.889 446.238 190.889C445.473 190.889 444.854 191.746 444.854 192.803C444.854 193.859 445.473 194.716 446.238 194.716Z" fill="#FDFDFD"/>
<path d="M446.238 199.74C447.002 199.74 447.622 198.884 447.622 197.827C447.622 196.77 447.002 195.914 446.238 195.914C445.473 195.914 444.854 196.77 444.854 197.827C444.854 198.884 445.473 199.74 446.238 199.74Z" fill="#FDFDFD"/>
<path d="M446.238 229.126C447.002 229.126 447.622 228.269 447.622 227.212C447.622 226.156 447.002 225.299 446.238 225.299C445.473 225.299 444.854 226.156 444.854 227.212C444.854 228.269 445.473 229.126 446.238 229.126Z" fill="#FDFDFD"/>
<path d="M446.238 242.253C447.002 242.253 447.622 241.396 447.622 240.34C447.622 239.283 447.002 238.426 446.238 238.426C445.473 238.426 444.854 239.283 444.854 240.34C444.854 241.396 445.473 242.253 446.238 242.253Z" fill="#FDFDFD"/>
<path d="M460.975 268.065C461.739 268.065 462.359 267.208 462.359 266.151C462.359 265.095 461.739 264.238 460.975 264.238C460.21 264.238 459.59 265.095 459.59 266.151C459.59 267.208 460.21 268.065 460.975 268.065Z" fill="#FDFDFD"/>
<path d="M387.966 204.447C388.73 204.447 389.35 203.591 389.35 202.535C389.35 201.479 388.73 200.623 387.966 200.623C387.202 200.623 386.582 201.479 386.582 202.535C386.582 203.591 387.202 204.447 387.966 204.447Z" fill="#FDFDFD"/>
<path d="M387.439 199.385C388.203 199.385 388.822 198.528 388.822 197.47C388.822 196.413 388.203 195.556 387.439 195.556C386.676 195.556 386.056 196.413 386.056 197.47C386.056 198.528 386.676 199.385 387.439 199.385Z" fill="#FDFDFD"/>
<path d="M387.439 214.324C388.203 214.324 388.822 213.467 388.822 212.41C388.822 211.353 388.203 210.497 387.439 210.497C386.676 210.497 386.056 211.353 386.056 212.41C386.056 213.467 386.676 214.324 387.439 214.324Z" fill="#FDFDFD"/>
</g>
<defs>
<radialGradient id="paint0_radial" cx="0" cy="0" r="1" gradientUnits="userSpaceOnUse" gradientTransform="translate(239.5 244.5) scale(239.5)">
<stop stop-color="#76E5FF"/>
<stop offset="0.1269" stop-color="#68DAFF"/>
<stop offset="0.7194" stop-color="#29ABFF" stop-opacity="0"/>
<stop offset="1" stop-color="#33ACFF" stop-opacity="0"/>
</radialGradient>
<linearGradient id="paint1_linear" x1="224.843" y1="201.038" x2="283.219" y2="99.9305" gradientUnits="userSpaceOnUse">
<stop stop-color="white"/>
<stop offset="1" stop-color="white" stop-opacity="0"/>
</linearGradient>
<linearGradient id="paint2_linear" x1="371.48" y1="290.827" x2="371.48" y2="221.514" gradientUnits="userSpaceOnUse">
<stop stop-color="white"/>
<stop offset="1" stop-color="white" stop-opacity="0"/>
</linearGradient>
<linearGradient id="paint3_linear" x1="397.566" y1="301.812" x2="397.566" y2="223.779" gradientUnits="userSpaceOnUse">
<stop stop-color="white"/>
<stop offset="1" stop-color="white" stop-opacity="0"/>
</linearGradient>
<linearGradient id="paint4_linear" x1="423.65" y1="312.799" x2="423.65" y2="234.766" gradientUnits="userSpaceOnUse">
<stop stop-color="white"/>
<stop offset="1" stop-color="white" stop-opacity="0"/>
</linearGradient>
<linearGradient id="paint5_linear" x1="449.735" y1="323.785" x2="449.735" y2="245.752" gradientUnits="userSpaceOnUse">
<stop stop-color="white"/>
<stop offset="1" stop-color="white" stop-opacity="0"/>
</linearGradient>
<linearGradient id="paint6_linear" x1="174.433" y1="225.986" x2="171.179" y2="199.117" gradientUnits="userSpaceOnUse">
<stop stop-color="#242424"/>
<stop offset="1" stop-color="#242424"/>
</linearGradient>
<linearGradient id="paint7_linear" x1="198.355" y1="264.587" x2="175.878" y2="264.587" gradientUnits="userSpaceOnUse">
<stop stop-color="#242424"/>
<stop offset="1" stop-color="#242424"/>
</linearGradient>
<linearGradient id="paint8_linear" x1="203.784" y1="265.512" x2="181.795" y2="265.512" gradientUnits="userSpaceOnUse">
<stop stop-color="#242424"/>
<stop offset="1" stop-color="#242424"/>
</linearGradient>
<linearGradient id="paint9_linear" x1="216.154" y1="205.532" x2="189.639" y2="205.532" gradientUnits="userSpaceOnUse">
<stop stop-color="white"/>
<stop offset="0.6286" stop-color="#F2F2F2"/>
<stop offset="1" stop-color="#E9E8E8"/>
</linearGradient>
<linearGradient id="paint10_linear" x1="195.184" y1="192.734" x2="181.737" y2="192.734" gradientUnits="userSpaceOnUse">
<stop stop-color="#FEE2C5"/>
<stop offset="1" stop-color="#F9B772"/>
</linearGradient>
<linearGradient id="paint11_linear" x1="201.69" y1="222.254" x2="171.67" y2="222.254" gradientUnits="userSpaceOnUse">
<stop stop-color="#3B3B3B"/>
<stop offset="1" stop-color="#464545"/>
</linearGradient>
<linearGradient id="paint12_linear" x1="212.135" y1="214.161" x2="206.379" y2="214.161" gradientUnits="userSpaceOnUse">
<stop stop-color="#FEE2C5"/>
<stop offset="1" stop-color="#F9B772"/>
</linearGradient>
<linearGradient id="paint13_linear" x1="203.911" y1="235.529" x2="200.061" y2="203.737" gradientUnits="userSpaceOnUse">
<stop stop-color="#4D4D4D"/>
<stop offset="0.4406" stop-color="#393939"/>
<stop offset="1" stop-color="#242424"/>
</linearGradient>
<linearGradient id="paint14_linear" x1="80.8497" y1="192.767" x2="99.123" y2="192.767" gradientUnits="userSpaceOnUse">
<stop stop-color="#FEE2C5"/>
<stop offset="1" stop-color="#F9B772"/>
</linearGradient>
<linearGradient id="paint15_linear" x1="48.9101" y1="200.265" x2="72.5443" y2="200.265" gradientUnits="userSpaceOnUse">
<stop stop-color="#FEE2C5"/>
<stop offset="1" stop-color="#F9B772"/>
</linearGradient>
<linearGradient id="paint16_linear" x1="80.5069" y1="255.926" x2="89.176" y2="255.926" gradientUnits="userSpaceOnUse">
<stop stop-color="#FEE2C5"/>
<stop offset="1" stop-color="#F9B772"/>
</linearGradient>
<linearGradient id="paint17_linear" x1="65.7135" y1="254.828" x2="88.2768" y2="254.828" gradientUnits="userSpaceOnUse">
<stop stop-color="#FEE2C5"/>
<stop offset="1" stop-color="#F9B772"/>
</linearGradient>
<linearGradient id="paint18_linear" x1="70.5986" y1="186.186" x2="76.9745" y2="186.186" gradientUnits="userSpaceOnUse">
<stop stop-color="#FEE2C5"/>
<stop offset="1" stop-color="#F9B772"/>
</linearGradient>
<linearGradient id="paint19_linear" x1="67.954" y1="177.054" x2="79.6581" y2="177.054" gradientUnits="userSpaceOnUse">
<stop stop-color="#FEE2C5"/>
<stop offset="1" stop-color="#F9B772"/>
</linearGradient>
<linearGradient id="paint20_linear" x1="132.416" y1="423.204" x2="141.93" y2="406.411" gradientUnits="userSpaceOnUse">
<stop stop-color="#E73053"/>
<stop offset="0.1109" stop-color="#E73456"/>
<stop offset="0.2533" stop-color="#E83F60"/>
<stop offset="0.413" stop-color="#EA5072"/>
<stop offset="0.5806" stop-color="#EC668C"/>
<stop offset="0.6176" stop-color="#EC6185"/>
<stop offset="0.7764" stop-color="#EA4B6E"/>
<stop offset="0.9095" stop-color="#E83D60"/>
<stop offset="1" stop-color="#E8395C"/>
</linearGradient>
<clipPath id="clip0">
<rect width="479" height="479" fill="white"/>
</clipPath>
</defs>
</svg>
