<svg width="116" height="32" viewBox="0 0 116 32" fill="none" xmlns="http://www.w3.org/2000/svg">
<path d="M22.5175 11.7762L19.1975 5.995L20.2812 5.3725L23.6012 11.1538L22.5175 11.7762ZM26.64 13.75L23.32 7.96875L24.4038 7.34625L27.7238 13.1275L26.64 13.75ZM26.3787 15.7475C25.7425 13.8675 23.4963 12.6262 21.6213 13.36L13.8275 0L0 25H25.3125C27.8962 25 30 22.8975 30 20.3125C30 18.095 28.4513 16.2312 26.3787 15.7475ZM25.3125 22.5H4.24L10.2675 11.6025L11.6012 14.2712L14.0037 9.7075L16.0912 13.2263L17.4862 11.23L20.7812 16.875C21.875 14.6488 24.9412 16.015 24.1413 18.255C25.73 17.63 27.5 18.535 27.5 20.3125C27.5 21.5187 26.5187 22.5 25.3125 22.5Z" fill="white"/>
<path d="M37.6797 23.2305H45.0977V25H35.0312V23.4062L42.0273 14.1133H35.1367V12.3203H44.7461V13.8555L37.6797 23.2305ZM52.6211 25.2344C50.9023 25.2344 49.5039 24.6719 48.4258 23.5469C47.3477 22.4141 46.8086 20.9023 46.8086 19.0117V18.6133C46.8086 17.3555 47.0469 16.2344 47.5234 15.25C48.0078 14.2578 48.6797 13.4844 49.5391 12.9297C50.4062 12.3672 51.3438 12.0859 52.3516 12.0859C54 12.0859 55.2812 12.6289 56.1953 13.7148C57.1094 14.8008 57.5664 16.3555 57.5664 18.3789V19.2812H48.9766C49.0078 20.5312 49.3711 21.543 50.0664 22.3164C50.7695 23.082 51.6602 23.4648 52.7383 23.4648C53.5039 23.4648 54.1523 23.3086 54.6836 22.9961C55.2148 22.6836 55.6797 22.2695 56.0781 21.7539L57.4023 22.7852C56.3398 24.418 54.7461 25.2344 52.6211 25.2344ZM52.3516 13.8672C51.4766 13.8672 50.7422 14.1875 50.1484 14.8281C49.5547 15.4609 49.1875 16.3516 49.0469 17.5H55.3984V17.3359C55.3359 16.2344 55.0391 15.3828 54.5078 14.7812C53.9766 14.1719 53.2578 13.8672 52.3516 13.8672ZM62.1367 12.3203L62.207 13.9141C63.1758 12.6953 64.4414 12.0859 66.0039 12.0859C68.6836 12.0859 70.0352 13.5977 70.0586 16.6211V25H67.8906V16.6094C67.8828 15.6953 67.6719 15.0195 67.2578 14.582C66.8516 14.1445 66.2148 13.9258 65.3477 13.9258C64.6445 13.9258 64.0273 14.1133 63.4961 14.4883C62.9648 14.8633 62.5508 15.3555 62.2539 15.9648V25H60.0859V12.3203H62.1367ZM84.5547 22.0117L86.9922 12.3203H89.1602L85.4688 25H83.7109L80.6289 15.3906L77.6289 25H75.8711L72.1914 12.3203H74.3477L76.8438 21.8125L79.7969 12.3203H81.543L84.5547 22.0117ZM96.6367 25.2344C94.918 25.2344 93.5195 24.6719 92.4414 23.5469C91.3633 22.4141 90.8242 20.9023 90.8242 19.0117V18.6133C90.8242 17.3555 91.0625 16.2344 91.5391 15.25C92.0234 14.2578 92.6953 13.4844 93.5547 12.9297C94.4219 12.3672 95.3594 12.0859 96.3672 12.0859C98.0156 12.0859 99.2969 12.6289 100.211 13.7148C101.125 14.8008 101.582 16.3555 101.582 18.3789V19.2812H92.9922C93.0234 20.5312 93.3867 21.543 94.082 22.3164C94.7852 23.082 95.6758 23.4648 96.7539 23.4648C97.5195 23.4648 98.168 23.3086 98.6992 22.9961C99.2305 22.6836 99.6953 22.2695 100.094 21.7539L101.418 22.7852C100.355 24.418 98.7617 25.2344 96.6367 25.2344ZM96.3672 13.8672C95.4922 13.8672 94.7578 14.1875 94.1641 14.8281C93.5703 15.4609 93.2031 16.3516 93.0625 17.5H99.4141V17.3359C99.3516 16.2344 99.0547 15.3828 98.5234 14.7812C97.9922 14.1719 97.2734 13.8672 96.3672 13.8672ZM114.836 18.8008C114.836 20.7383 114.391 22.2969 113.5 23.4766C112.609 24.6484 111.414 25.2344 109.914 25.2344C108.312 25.2344 107.074 24.668 106.199 23.5352L106.094 25H104.102V7H106.27V13.7148C107.145 12.6289 108.352 12.0859 109.891 12.0859C111.43 12.0859 112.637 12.668 113.512 13.832C114.395 14.9961 114.836 16.5898 114.836 18.6133V18.8008ZM112.668 18.5547C112.668 17.0781 112.383 15.9375 111.812 15.1328C111.242 14.3281 110.422 13.9258 109.352 13.9258C107.922 13.9258 106.895 14.5898 106.27 15.918V21.4023C106.934 22.7305 107.969 23.3945 109.375 23.3945C110.414 23.3945 111.223 22.9922 111.801 22.1875C112.379 21.3828 112.668 20.1719 112.668 18.5547Z" fill="white"/>
</svg>
