<svg width="385" height="372" viewBox="0 0 385 372" fill="none" xmlns="http://www.w3.org/2000/svg">
<path d="M259.621 248.375L183.242 279.489C166.691 290.03 184.269 305.961 195.868 293.425C185.592 315.523 219.439 329.037 227.294 306.658C227.884 322.875 275.382 322.263 258.911 294.803C294.239 303.907 301.444 248.463 259.621 248.375Z" fill="#B5BAB3"/>
<path d="M225.469 272.933L141.207 307.258C122.947 318.887 142.34 336.462 155.135 322.632C143.799 347.011 181.14 361.919 189.805 337.231C190.457 355.121 242.856 354.446 224.686 324.153C263.66 334.196 271.608 273.029 225.469 272.933Z" fill="#B5BAB3"/>
<path d="M140.555 232.962C131.648 230.894 119.596 224.65 113.533 238.328C108.52 249.64 116.406 258.155 125.071 260.842C89.5353 273.486 112.087 312.929 137.23 293.421C133.024 301.045 142.454 307.799 148.61 309.145C162.423 312.167 170.651 298.92 172.111 284.905L140.555 232.962Z" fill="#CACCCA"/>
<path d="M182.279 241.782C172.906 240.577 143.393 249.435 143.393 249.435C137.975 254.601 132.527 264.432 137.299 272.165C141.525 279.014 153.134 280.182 159.086 275.814C154.555 282.49 152.613 294.074 160.267 299.129C171.629 306.63 176.563 297.984 181.163 290.435C181.675 297.758 193.715 299.075 198.532 296.822C215.974 288.666 195.155 243.439 182.279 241.782Z" fill="#DFE1DE"/>
<path d="M238.17 224.548C238.78 212.133 229.585 207.432 221.777 208.061C230.425 205.881 232.963 191.367 228.446 184.5C224.732 178.855 216.867 177.621 211.465 177.759L212.189 175.723C208.242 169.036 193.439 173.738 189.693 179.21C186.109 184.447 187.124 191.503 189.474 196.455C174.549 174.957 148.058 190.8 154.929 214.365C149.406 208.693 137.643 213.605 133.304 219.364C127.22 227.436 124.389 239.37 128.337 248.566C133.05 259.548 149.119 266.279 159.638 256.871C152.524 284.121 195.328 290.165 194.496 264.321C201.84 276.422 213.211 271.861 219.175 264.678C224.881 257.804 224.834 244.789 216.569 241.511C227.69 243.79 237.511 237.946 238.17 224.548Z" fill="#FCFCFC"/>
<path d="M267.072 231.624C260.925 221.13 246.599 216.739 238.448 226.741C239.026 217.326 235.857 201.874 225.267 199.236C216.535 197.061 204.512 204.39 202.417 213.062C202.417 213.062 176.622 269.306 175.836 269.185C173.221 290.919 198.771 296.74 203.373 279.942C201.008 306.811 230.906 308.643 232.396 282.172C252.786 306.57 281.079 274.23 256.961 261.196C267.879 256.954 273.944 243.355 267.072 231.624Z" fill="#FCFCFC"/>
<path d="M133.303 219.364C127.22 227.436 124.389 239.37 128.336 248.566C133.05 259.548 149.119 266.279 159.638 256.871C152.524 284.121 195.328 290.165 194.496 264.321C201.84 276.422 213.211 271.861 219.174 264.679C224.881 257.804 224.834 244.789 216.569 241.511C227.69 243.79 237.512 237.946 238.17 224.549C238.599 215.83 234.191 210.921 228.826 208.986C227.846 220.752 217.318 234.217 205.531 228.415C216.877 237.538 197.948 245.504 191.246 239.069C194.944 249.159 190.306 267.732 172.572 264.294C160.992 262.049 161.233 244.68 162.85 235.684C158.222 248.295 144.084 253.019 137.602 243.832C129.374 232.171 133.216 213.397 154.596 214.316L153.677 213.331C147.79 209.391 137.339 214.008 133.303 219.364Z" fill="#DFE1DE"/>
<path d="M233.338 284.209C255.199 309.614 284.145 274.516 258.079 261.118C270.012 256.511 275.007 242.059 267.685 229.805C261.137 218.844 245.609 214.412 236.611 225.043C236.65 224.52 236.677 223.975 236.693 223.42C236.206 224.249 236.299 226.437 235.915 227.322C244.264 226.019 254.599 226.448 257.448 236.148C260.448 246.354 253.341 255.403 244.479 259.015C254.402 261.493 261.485 268.741 253.769 278.491C245.477 288.965 233.29 276.878 221.987 269.269C242.137 300.516 207.676 307.265 200.857 284.737C201.258 316.634 240.654 316.113 233.338 284.209Z" fill="#DFE1DE"/>
<path d="M193.588 212.478C217.982 182.657 202.559 169.667 202.559 169.667L193.461 169.694L193.374 169.695L184.277 169.721C184.277 169.721 168.931 182.803 193.501 212.479L193.502 212.586C193.517 212.568 193.53 212.55 193.545 212.532C193.56 212.549 193.573 212.568 193.588 212.585L193.588 212.478Z" fill="#EAAB28"/>
<path d="M178.297 170.246L210.903 169.709L210.724 159.149L178.119 159.682L178.297 170.246Z" fill="#BF372D"/>
<path d="M192.746 114.38C161.303 114.898 136.232 140.349 136.753 171.232C136.874 178.409 138.38 185.24 140.995 191.499C148.929 170.538 169.294 155.442 193.432 155.046C217.571 154.652 238.434 169.069 247.064 189.759C249.469 183.418 250.743 176.543 250.625 169.365C250.103 138.48 224.19 113.864 192.746 114.38Z" fill="#284865"/>
<path d="M208 156.689C225.72 160.97 240.23 173.384 247.064 189.759C249.469 183.418 250.743 176.543 250.625 169.365C250.184 143.417 231.817 121.901 207.312 115.994L208 156.689Z" fill="#121D21"/>
<path d="M157.263 96.7651C157.709 123.122 163.793 147.149 173.519 165.696C179.82 163.618 186.552 162.427 193.555 162.314C200.557 162.199 207.323 163.166 213.695 165.036C222.783 146.182 228.055 121.97 227.61 95.6141C226.904 53.7466 211.989 17.7284 190.819 0.290577C170.248 18.414 156.555 54.8976 157.263 96.7651Z" fill="#FCFCFC"/>
<path d="M190.819 0.290496C188.472 2.35867 192.367 162.356 192.367 162.356C192.764 162.343 193.157 162.321 193.555 162.314C200.557 162.199 207.323 163.166 213.695 165.035C222.783 146.182 228.055 121.969 227.61 95.6138C226.904 53.7467 211.989 17.7286 190.819 0.290496Z" fill="#CFCFCF"/>
<path d="M185.815 151.002C186.108 168.416 189.432 183.438 194.034 190.767C198.387 183.293 201.203 168.168 200.909 150.755C200.616 133.343 197.289 118.317 192.689 110.99C188.335 118.466 185.52 133.59 185.815 151.002Z" fill="#3C6075"/>
<path d="M193.825 190.407C193.897 190.523 193.964 190.654 194.034 190.767C198.387 183.293 201.203 168.168 200.909 150.755C200.616 133.343 197.289 118.317 192.689 110.99C192.623 111.107 192.559 111.243 192.49 111.355L193.825 190.407Z" fill="#121D21"/>
<path d="M165.541 41.209C173.986 40.5192 182.644 40.0712 191.488 39.9264C200.329 39.7825 209.033 39.9366 217.495 40.3536C210.997 23.2336 201.732 9.28044 190.819 0.290508C180.213 9.63431 171.459 23.8856 165.541 41.209Z" fill="#DF642E"/>
<path d="M192.347 39.9194C200.889 39.7997 209.308 39.9504 217.494 40.3537C210.997 23.2336 201.732 9.28048 190.819 0.290547C190.628 0.458525 190.443 0.626687 190.254 0.798124L192.347 39.9194Z" fill="#BF372D"/>
<path d="M192.071 61.4569L191.853 61.459C187.691 61.5259 183.801 63.1843 180.901 66.1291C178 69.0734 176.439 72.945 176.508 77.0314C176.651 85.3631 183.669 92.1216 192.152 92.0973L192.369 92.0952C200.97 91.9541 207.851 84.966 207.707 76.5189C207.567 68.1884 200.551 61.4314 192.071 61.4569Z" fill="#EAAB28"/>
<path d="M191.915 65.1801C185.402 65.285 180.19 70.5759 180.298 76.9695C180.408 83.3691 185.792 88.481 192.306 88.374C198.816 88.2673 204.027 82.981 203.919 76.5821C203.811 70.1892 198.425 65.0724 191.915 65.1801Z" fill="#447470"/>
<path d="M193.588 212.478C217.981 182.657 202.558 169.667 202.558 169.667L193.461 169.694L193.374 169.694L184.277 169.721C184.277 169.721 168.931 182.803 193.501 212.479L193.501 212.585C193.516 212.568 193.53 212.549 193.545 212.531C193.559 212.549 193.573 212.567 193.588 212.585L193.588 212.478Z" fill="#EAAB28"/>
<path d="M178.296 170.246L210.903 169.709L210.724 159.149L178.119 159.682L178.296 170.246Z" fill="#BF372D"/>
<path d="M192.746 114.38C161.303 114.898 136.232 140.349 136.753 171.232C136.874 178.409 138.38 185.24 140.995 191.499C148.929 170.538 169.294 155.442 193.432 155.046C217.571 154.652 238.434 169.069 247.064 189.758C249.469 183.418 250.743 176.543 250.625 169.365C250.103 138.48 224.19 113.864 192.746 114.38Z" fill="#284865"/>
<path d="M208 156.689C225.72 160.97 240.23 173.383 247.064 189.758C249.469 183.418 250.743 176.543 250.625 169.365C250.184 143.417 231.817 121.901 207.312 115.994L208 156.689Z" fill="#121D21"/>
<path d="M157.263 96.7649C157.709 123.122 163.793 147.149 173.519 165.695C179.82 163.618 186.551 162.427 193.555 162.314C200.557 162.199 207.322 163.166 213.695 165.036C222.783 146.182 228.055 121.969 227.61 95.6139C226.904 53.7463 211.989 17.7282 190.819 0.290364C170.247 18.4138 156.555 54.8974 157.263 96.7649Z" fill="#FCFCFC"/>
<path d="M165.468 41.201C164.487 43.9685 163.954 46.0573 163.954 46.0573C163.86 46.1175 193.593 42.2601 219.444 45.7394C219.444 45.7394 218.072 41.6393 217.495 40.3538C207.977 31.4863 178.331 28.9191 165.468 41.201Z" fill="#284865"/>
<path d="M185.815 151.002C186.108 168.416 189.431 183.438 194.034 190.767C198.386 183.293 201.202 168.168 200.909 150.755C200.616 133.343 197.288 118.317 192.688 110.99C188.335 118.466 185.52 133.59 185.815 151.002Z" fill="#3C6075"/>
<path d="M193.825 190.407C193.897 190.523 193.964 190.654 194.034 190.767C198.386 183.293 201.202 168.168 200.909 150.755C200.616 133.343 197.288 118.317 192.688 110.99C192.623 111.107 192.559 111.242 192.49 111.355L193.825 190.407Z" fill="#121D21"/>
<path d="M165.458 41.2372C173.903 40.5475 182.644 40.0709 191.488 39.9263C200.329 39.7824 209.033 39.9364 217.494 40.3535C210.997 23.2335 201.732 9.28031 190.819 0.290378C180.213 9.63418 171.376 23.9139 165.458 41.2372Z" fill="#DF642E"/>
<path d="M192.346 39.9193C200.889 39.7996 209.308 39.9504 217.494 40.3536C210.997 23.2336 201.732 9.28045 190.819 0.290517C190.628 0.458494 190.443 0.626656 190.254 0.798094L192.346 39.9193Z" fill="#BF372D"/>
<path d="M190.133 40.0237C198.676 39.9038 209.32 39.9621 217.506 40.3653C211.008 23.2453 201.744 9.29215 190.83 0.302217C190.64 0.470194 190.455 0.638356 190.265 0.809794L190.133 40.0237Z" fill="#BF372D"/>
<path d="M192.07 61.4569L191.852 61.459C187.691 61.5259 183.801 63.1843 180.9 66.1291C177.999 69.0734 176.439 72.945 176.508 77.0314C176.65 85.3631 183.669 92.1216 192.152 92.0973L192.369 92.0952C200.97 91.9541 207.851 84.966 207.707 76.5189C207.567 68.1883 200.551 61.4314 192.07 61.4569Z" fill="#EAAB28"/>
<path d="M191.915 65.18C185.402 65.2849 180.19 70.5758 180.298 76.9694C180.408 83.369 185.792 88.4809 192.306 88.3739C198.816 88.2672 204.027 82.9809 203.919 76.582C203.811 70.1891 198.425 65.0723 191.915 65.18Z" fill="#284865"/>
<path opacity="0.22" d="M190.819 0.290496C188.472 2.35867 192.367 162.356 192.367 162.356C192.763 162.343 193.157 162.321 193.555 162.314C200.557 162.199 207.322 163.166 213.695 165.035C222.783 146.182 228.055 121.969 227.61 95.6138C226.904 53.7467 211.989 17.7286 190.819 0.290496Z" fill="#CFCFCF"/>
<path opacity="0.22" d="M190.819 0.290496C188.472 2.35867 192.367 162.356 192.367 162.356C192.763 162.343 193.157 162.321 193.555 162.314C200.557 162.199 207.322 163.166 213.695 165.035C222.783 146.182 228.055 121.969 227.61 95.6138C226.904 53.7467 211.989 17.7286 190.819 0.290496Z" fill="#CFCFCF"/>
</svg>
