<svg width="365" height="363" viewBox="0 0 365 363" fill="none" xmlns="http://www.w3.org/2000/svg">
<path d="M36.4679 215.659C31.3681 222.867 21.1742 224.41 13.6999 219.122C6.23467 213.84 4.28743 203.708 9.38724 196.5C14.4871 189.291 24.69 187.755 32.1552 193.037C39.6295 198.325 41.5677 208.451 36.4679 215.659ZM275.196 139.934L276.459 126.241C266.914 125.698 257.649 126.828 248.606 129.616L254.924 142.319C261.536 140.46 268.279 139.66 275.196 139.934ZM52.9634 215.261C52.1034 218.123 50.7867 220.884 48.9842 223.432C48.0799 224.71 47.0796 225.894 46.0136 226.979C54.0082 231.187 61.8061 234.486 69.3983 236.87L73.4425 223.879C66.835 221.826 60.0267 218.967 52.9634 215.261ZM151.854 187.775L225.793 189.869L161.32 201.466L176.683 262.633L277.598 181.167L122.909 155.111L151.854 187.775ZM317.459 137.922C308.165 133.33 299.151 130.084 290.384 128.174L289.121 141.867C296.224 143.526 303.573 146.234 311.221 150.013C312.035 146.584 313.488 143.267 315.629 140.241L317.459 137.922ZM350.898 144.553C343.433 139.272 333.239 140.814 328.139 148.022C323.039 155.23 324.977 165.357 332.442 170.638C339.917 175.926 350.12 174.39 355.219 167.182C360.319 159.974 358.372 149.841 350.898 144.553V144.553ZM110.075 226.494C102.651 227.817 95.1057 228.181 87.2459 227.056L83.1452 240.242C88.694 241.206 94.1131 241.53 99.4844 241.482L110.084 226.5L110.075 226.494ZM125.518 243.187L157.039 231.852L150.882 207.337L125.518 243.187ZM242.019 147.293L235.771 134.718C228.171 138.435 221.05 143.234 214.184 148.554L233.804 152.01C236.498 150.328 239.219 148.665 242.019 147.293Z" fill="white" fill-opacity="0.1"/>
</svg>
